<svg xmlns="http://www.w3.org/2000/svg" xmlns:xlink="http://www.w3.org/1999/xlink" width="2880" height="712" viewBox="0 0 2880 712">
  <defs>
    <clipPath id="clip-path">
      <rect id="Rectangle_5239" data-name="Rectangle 5239" width="2880" height="712" transform="translate(0 1094)" fill="#fff" stroke="#707070" stroke-width="1"/>
    </clipPath>
    <clipPath id="clip-path-2">
      <rect id="Rectangle_5237" data-name="Rectangle 5237" width="2984.45" height="711.855" fill="none"/>
    </clipPath>
    <clipPath id="clip-path-3">
      <rect id="Rectangle_5230" data-name="Rectangle 5230" width="2984.445" height="711.855" fill="none"/>
    </clipPath>
    <clipPath id="clip-path-4">
      <rect id="Rectangle_5201" data-name="Rectangle 5201" width="2.4" height="485.764" fill="none"/>
    </clipPath>
    <clipPath id="clip-path-5">
      <rect id="Rectangle_5202" data-name="Rectangle 5202" width="2.4" height="464.735" fill="none"/>
    </clipPath>
    <clipPath id="clip-path-6">
      <rect id="Rectangle_5203" data-name="Rectangle 5203" width="2.4" height="443.706" fill="none"/>
    </clipPath>
    <clipPath id="clip-path-7">
      <rect id="Rectangle_5204" data-name="Rectangle 5204" width="2.4" height="422.679" fill="none"/>
    </clipPath>
    <clipPath id="clip-path-8">
      <rect id="Rectangle_5208" data-name="Rectangle 5208" width="155.456" height="17.874" fill="none"/>
    </clipPath>
    <clipPath id="clip-path-13">
      <rect id="Rectangle_5227" data-name="Rectangle 5227" width="145.398" height="17.874" fill="none"/>
    </clipPath>
    <clipPath id="clip-path-14">
      <rect id="Rectangle_5229" data-name="Rectangle 5229" width="78.248" height="17.874" fill="none"/>
    </clipPath>
  </defs>
  <g id="Mask_Group_200" data-name="Mask Group 200" transform="translate(0 -1094)" clip-path="url(#clip-path)">
    <g id="Group_17079" data-name="Group 17079" transform="translate(0 1094.391)">
      <g id="Mask_Group_17078" data-name="Mask Group 17078" clip-path="url(#clip-path-2)">
        <path id="Path_55515" data-name="Path 55515" d="M1068.41,341.45V618.369h258.8V498.715L1068.41,341.3Z" transform="translate(288.315 92.101)" fill="#f9cc36"/>
        <path id="Path_55516" data-name="Path 55516" d="M1849.967,189.918V620.857H1684.441V86.277Z" transform="translate(454.554 30.282)" fill="#62d4b8"/>
        <path id="Path_55517" data-name="Path 55517" d="M1701.016,214.025V592.385h-68.643v60.481H1484.42V214.025Z" transform="translate(400.577 57.756)" fill="#51cadc"/>
        <path id="Path_55518" data-name="Path 55518" d="M1678.449,224.067V118.923l-110.4,105.144Z" transform="translate(423.145 38.092)" fill="#51cadc"/>
        <path id="Path_55519" data-name="Path 55519" d="M1470.69,173.808V523.487L1267.011,394.76V173.808Z" transform="translate(341.909 46.903)" fill="#fe604a"/>
        <path id="Path_55520" data-name="Path 55520" d="M1437.21,166.92H1288.658l10.364-17.124H1427l10.363,17.124Z" transform="translate(347.75 40.423)" fill="#fe604a"/>
        <g id="Group_17075" data-name="Group 17075">
          <g id="Group_17074" data-name="Group 17074" clip-path="url(#clip-path-3)">
            <g id="Group_17043" data-name="Group 17043" transform="translate(2168.137 159.428)" opacity="0.7">
              <g id="Group_17042" data-name="Group 17042">
                <g id="Group_17041" data-name="Group 17041" clip-path="url(#clip-path-4)">
                  <path id="Path_55522" data-name="Path 55522" d="M1708.59,611.312a1.184,1.184,0,0,1-1.2-1.2V126.749a1.2,1.2,0,1,1,2.4,0V610.11a1.185,1.185,0,0,1-1.2,1.2" transform="translate(-1707.39 -125.548)" fill="#fff"/>
                </g>
              </g>
            </g>
            <g id="Group_17046" data-name="Group 17046" transform="translate(2203.134 180.457)" opacity="0.7">
              <g id="Group_17045" data-name="Group 17045">
                <g id="Group_17044" data-name="Group 17044" clip-path="url(#clip-path-5)">
                  <path id="Path_55523" data-name="Path 55523" d="M1736.15,606.843a1.184,1.184,0,0,1-1.2-1.2V143.309a1.184,1.184,0,0,1,1.2-1.2,1.1,1.1,0,0,1,1.2,1.2V605.642a1.184,1.184,0,0,1-1.2,1.2" transform="translate(-1734.95 -142.108)" fill="#fff"/>
                </g>
              </g>
            </g>
            <g id="Group_17049" data-name="Group 17049" transform="translate(2238.131 201.485)" opacity="0.7">
              <g id="Group_17048" data-name="Group 17048">
                <g id="Group_17047" data-name="Group 17047" clip-path="url(#clip-path-6)">
                  <path id="Path_55524" data-name="Path 55524" d="M1763.711,602.374a1.185,1.185,0,0,1-1.2-1.2v-441.3a1.2,1.2,0,1,1,2.4,0v441.3a1.184,1.184,0,0,1-1.2,1.2" transform="translate(-1762.51 -158.668)" fill="#fff"/>
                </g>
              </g>
            </g>
            <g id="Group_17052" data-name="Group 17052" transform="translate(2273.128 222.513)" opacity="0.7">
              <g id="Group_17051" data-name="Group 17051">
                <g id="Group_17050" data-name="Group 17050" clip-path="url(#clip-path-7)">
                  <path id="Path_55525" data-name="Path 55525" d="M1791.271,597.906a1.184,1.184,0,0,1-1.2-1.2V176.43a1.185,1.185,0,0,1,1.2-1.2,1.106,1.106,0,0,1,1.2,1.2V596.7a1.185,1.185,0,0,1-1.2,1.2" transform="translate(-1790.07 -175.227)" fill="#fff"/>
                </g>
              </g>
            </g>
            <g id="Group_17055" data-name="Group 17055" transform="translate(1632.957 250.452)" opacity="0.3">
              <g id="Group_17054" data-name="Group 17054">
                <g id="Group_17053" data-name="Group 17053" clip-path="url(#clip-path-8)">
                  <rect id="Rectangle_5205" data-name="Rectangle 5205" width="39.955" height="17.874" transform="translate(-0.004)" fill="#fff"/>
                  <rect id="Rectangle_5206" data-name="Rectangle 5206" width="39.955" height="17.874" transform="translate(57.825)" fill="#fff"/>
                  <rect id="Rectangle_5207" data-name="Rectangle 5207" width="39.955" height="17.874" transform="translate(115.503)" fill="#fff"/>
                </g>
              </g>
            </g>
            <g id="Group_17058" data-name="Group 17058" transform="translate(1632.957 292.809)" opacity="0.3">
              <g id="Group_17057" data-name="Group 17057">
                <g id="Group_17056" data-name="Group 17056" clip-path="url(#clip-path-8)">
                  <rect id="Rectangle_5209" data-name="Rectangle 5209" width="39.955" height="17.874" transform="translate(-0.004)" fill="#fff"/>
                  <rect id="Rectangle_5210" data-name="Rectangle 5210" width="39.955" height="17.874" transform="translate(57.825)" fill="#fff"/>
                  <rect id="Rectangle_5211" data-name="Rectangle 5211" width="39.955" height="17.874" transform="translate(115.503)" fill="#fff"/>
                </g>
              </g>
            </g>
            <g id="Group_17061" data-name="Group 17061" transform="translate(1632.957 335.318)" opacity="0.3">
              <g id="Group_17060" data-name="Group 17060">
                <g id="Group_17059" data-name="Group 17059" clip-path="url(#clip-path-8)">
                  <rect id="Rectangle_5213" data-name="Rectangle 5213" width="39.955" height="17.874" transform="translate(-0.004)" fill="#fff"/>
                  <rect id="Rectangle_5214" data-name="Rectangle 5214" width="39.955" height="17.874" transform="translate(57.825)" fill="#fff"/>
                  <rect id="Rectangle_5215" data-name="Rectangle 5215" width="39.955" height="17.874" transform="translate(115.503)" fill="#fff"/>
                </g>
              </g>
            </g>
            <g id="Group_17064" data-name="Group 17064" transform="translate(1632.957 377.675)" opacity="0.3">
              <g id="Group_17063" data-name="Group 17063">
                <g id="Group_17062" data-name="Group 17062" clip-path="url(#clip-path-8)">
                  <rect id="Rectangle_5217" data-name="Rectangle 5217" width="39.955" height="17.874" transform="translate(-0.004)" fill="#fff"/>
                  <rect id="Rectangle_5218" data-name="Rectangle 5218" width="39.955" height="17.874" transform="translate(57.825)" fill="#fff"/>
                  <rect id="Rectangle_5219" data-name="Rectangle 5219" width="39.955" height="17.874" transform="translate(115.503)" fill="#fff"/>
                </g>
              </g>
            </g>
            <g id="Group_17067" data-name="Group 17067" transform="translate(1632.957 420.183)" opacity="0.3">
              <g id="Group_17066" data-name="Group 17066">
                <g id="Group_17065" data-name="Group 17065" clip-path="url(#clip-path-8)">
                  <rect id="Rectangle_5221" data-name="Rectangle 5221" width="39.955" height="17.874" transform="translate(-0.004)" fill="#fff"/>
                  <rect id="Rectangle_5222" data-name="Rectangle 5222" width="39.955" height="17.874" transform="translate(57.825)" fill="#fff"/>
                  <rect id="Rectangle_5223" data-name="Rectangle 5223" width="39.955" height="17.874" transform="translate(115.503)" fill="#fff"/>
                </g>
              </g>
            </g>
            <g id="Group_17070" data-name="Group 17070" transform="translate(1643.014 462.542)" opacity="0.3">
              <g id="Group_17069" data-name="Group 17069">
                <g id="Group_17068" data-name="Group 17068" clip-path="url(#clip-path-13)">
                  <path id="Path_55526" data-name="Path 55526" d="M1323.753,364.248v17.875H1322.1l-28.239-17.875h29.891Z" transform="translate(-1293.859 -364.248)" fill="#fff"/>
                  <rect id="Rectangle_5225" data-name="Rectangle 5225" width="39.955" height="17.874" transform="translate(47.768)" fill="#fff"/>
                  <rect id="Rectangle_5226" data-name="Rectangle 5226" width="39.955" height="17.874" transform="translate(105.446)" fill="#fff"/>
                </g>
              </g>
            </g>
            <g id="Group_17073" data-name="Group 17073" transform="translate(1710.164 505.05)" opacity="0.3">
              <g id="Group_17072" data-name="Group 17072">
                <g id="Group_17071" data-name="Group 17071" clip-path="url(#clip-path-14)">
                  <path id="Path_55527" data-name="Path 55527" d="M1367.314,397.723v13.068l-20.578-13.068Z" transform="translate(-1346.741 -397.723)" fill="#fff"/>
                  <rect id="Rectangle_5228" data-name="Rectangle 5228" width="39.955" height="17.874" transform="translate(38.296)" fill="#fff"/>
                </g>
              </g>
            </g>
          </g>
        </g>
        <rect id="Rectangle_5231" data-name="Rectangle 5231" width="137.288" height="18.475" transform="translate(2150.862 632.665)" fill="#62bca2"/>
        <g id="Group_17077" data-name="Group 17077">
          <g id="Group_17076" data-name="Group 17076" clip-path="url(#clip-path-3)">
            <path id="Path_55528" data-name="Path 55528" d="M967.669,663.506H632.561l-81.412-462.83a38.109,38.109,0,0,1,31.092-44.011,34.27,34.27,0,0,1,6.759-.6h422.228a38.176,38.176,0,0,1,38.3,37.852,34.27,34.27,0,0,1-.6,6.759l-81.41,462.83Z" transform="translate(148.577 47.115)" fill="#afc0de"/>
            <path id="Path_55529" data-name="Path 55529" d="M753.363,603.364H623.886a1.785,1.785,0,0,1-1.8-1.5L582.73,378.957l1.8-.45,1.8-.3,39.2,221.553H753.513a1.828,1.828,0,0,1,1.8,1.8,1.939,1.939,0,0,1-1.8,1.8Z" transform="translate(157.252 107.061)" fill="#050605"/>
            <path id="Path_55530" data-name="Path 55530" d="M911.529,663.629h-.3a1.836,1.836,0,0,1-1.5-2.1l81.41-460.83a35.971,35.971,0,0,0-35.9-42.209H760.423a1.826,1.826,0,0,1-1.8-1.8,1.736,1.736,0,0,1,1.8-1.8H955.239A40.04,40.04,0,0,1,994.893,201.6l-81.41,460.831a1.786,1.786,0,0,1-1.8,1.5Z" transform="translate(204.717 46.796)" fill="#050605"/>
            <path id="Path_55531" data-name="Path 55531" d="M902.888,505.655h-73.15a1.827,1.827,0,0,1-1.8-1.8,1.939,1.939,0,0,1,1.8-1.8h73.15a1.826,1.826,0,0,1,1.8,1.8,1.938,1.938,0,0,1-1.8,1.8" transform="translate(223.422 140.48)" fill="#050605"/>
            <path id="Path_55532" data-name="Path 55532" d="M669.468,505.655H606.532a1.826,1.826,0,0,1-1.8-1.8,1.939,1.939,0,0,1,1.8-1.8h62.937a1.826,1.826,0,0,1,1.8,1.8,1.937,1.937,0,0,1-1.8,1.8" transform="translate(163.189 135.48)" fill="#050605"/>
            <path id="Path_55533" data-name="Path 55533" d="M656.519,452.427H597.188a1.826,1.826,0,0,1-1.8-1.8,1.938,1.938,0,0,1,1.8-1.8h59.331a1.826,1.826,0,0,1,1.8,1.8,1.938,1.938,0,0,1-1.8,1.8" transform="translate(160.668 121.117)" fill="#050605"/>
            <path id="Path_55534" data-name="Path 55534" d="M917.957,452.427h-95.08a1.826,1.826,0,0,1-1.8-1.8,1.938,1.938,0,0,1,1.8-1.8h95.08a1.826,1.826,0,0,1,1.8,1.8,1.938,1.938,0,0,1-1.8,1.8" transform="translate(221.571 126.117)" fill="#050605"/>
            <path id="Path_55535" data-name="Path 55535" d="M643.451,399.08H587.725a1.826,1.826,0,0,1-1.8-1.8,1.938,1.938,0,0,1,1.8-1.8h55.726a1.826,1.826,0,0,1,1.8,1.8,1.938,1.938,0,0,1-1.8,1.8" transform="translate(158.114 111.721)" fill="#050605"/>
            <path id="Path_55536" data-name="Path 55536" d="M931.642,399.08H816.134a1.826,1.826,0,0,1-1.8-1.8,1.939,1.939,0,0,1,1.8-1.8H931.642a1.826,1.826,0,0,1,1.8,1.8,1.938,1.938,0,0,1-1.8,1.8" transform="translate(219.751 111.721)" fill="#050605"/>
            <path id="Path_55537" data-name="Path 55537" d="M694.8,345.733H611.737a1.826,1.826,0,0,1-1.8-1.8,1.938,1.938,0,0,1,1.8-1.8H694.8a1.826,1.826,0,0,1,1.8,1.8,1.938,1.938,0,0,1-1.8,1.8" transform="translate(164.594 97.325)" fill="#050605"/>
            <path id="Path_55538" data-name="Path 55538" d="M945.51,345.733H809.274a1.826,1.826,0,0,1-1.8-1.8,1.938,1.938,0,0,1,1.8-1.8H945.51a1.826,1.826,0,0,1,1.8,1.8,1.938,1.938,0,0,1-1.8,1.8" transform="translate(217.9 97.325)" fill="#050605"/>
            <path id="Path_55539" data-name="Path 55539" d="M959.229,292.505H802.414a1.827,1.827,0,0,1-1.8-1.8,1.939,1.939,0,0,1,1.8-1.8H959.229a1.826,1.826,0,0,1,1.8,1.8,1.938,1.938,0,0,1-1.8,1.8" transform="translate(216.048 82.961)" fill="#050605"/>
            <path id="Path_55540" data-name="Path 55540" d="M690.424,292.505H654.675a1.826,1.826,0,0,1-1.8-1.8,1.938,1.938,0,0,1,1.8-1.8h35.749a1.826,1.826,0,0,1,1.8,1.8,1.938,1.938,0,0,1-1.8,1.8" transform="translate(176.181 82.961)" fill="#050605"/>
            <path id="Path_55541" data-name="Path 55541" d="M781.135,239.158H753.8a1.826,1.826,0,0,1-1.8-1.8,1.938,1.938,0,0,1,1.8-1.8h27.337a1.826,1.826,0,0,1,1.8,1.8,1.938,1.938,0,0,1-1.8,1.8" transform="translate(202.929 68.565)" fill="#050605"/>
            <path id="Path_55542" data-name="Path 55542" d="M973.065,239.158H795.672a1.827,1.827,0,0,1-1.8-1.8,1.939,1.939,0,0,1,1.8-1.8H973.065a1.826,1.826,0,0,1,1.8,1.8,1.938,1.938,0,0,1-1.8,1.8" transform="translate(214.229 68.565)" fill="#050605"/>
            <path id="Path_55543" data-name="Path 55543" d="M1238.178,477.529h0a1.826,1.826,0,0,1-1.8-1.8l1.2-145.4a1.862,1.862,0,0,1,1.953-1.8,1.1,1.1,0,0,1,.9.3l35.9,22.681a1.906,1.906,0,0,1,.451,2.554,2.075,2.075,0,0,1-2.4.6l-33.045-20.878-1.2,142.094a1.735,1.735,0,0,1-1.8,1.8Z" transform="translate(333.642 88.654)" fill="#050605"/>
            <path id="Path_55544" data-name="Path 55544" d="M1745.989,509.441H1684.7a1.826,1.826,0,0,1-1.8-1.8,1.939,1.939,0,0,1,1.8-1.8h61.284a1.826,1.826,0,0,1,1.8,1.8,1.938,1.938,0,0,1-1.8,1.8" transform="translate(454.139 142.502)" fill="#050605"/>
            <path id="Path_55545" data-name="Path 55545" d="M1815.175,553.048a1.735,1.735,0,0,1-1.8-1.8V346.365a1.982,1.982,0,0,1,1.652-2.1,1.869,1.869,0,0,1,2.1,1.652V551.245a1.827,1.827,0,0,1-1.8,1.8Z" transform="translate(489.347 98.895)" fill="#050605"/>
            <path id="Path_55546" data-name="Path 55546" d="M1684.824,341.123a1.826,1.826,0,0,1-1.8-1.8V86.675a2.04,2.04,0,0,1,.9-1.652,1.907,1.907,0,0,1,1.8,0l61.283,38.3a1.9,1.9,0,0,1,.451,2.554,2.078,2.078,0,0,1-2.4.6l-58.43-36.5V339.321a1.959,1.959,0,0,1-1.8,1.952Z" transform="translate(454.171 28.883)" fill="#050605"/>
            <path id="Path_55547" data-name="Path 55547" d="M1872.886,568.99H1601.315a1.827,1.827,0,0,1-1.8-1.8,1.94,1.94,0,0,1,1.8-1.8h269.768V507.706a1.983,1.983,0,0,1,1.653-2.1,1.871,1.871,0,0,1,2.1,1.653v59.931a1.827,1.827,0,0,1-1.8,1.8Z" transform="translate(431.636 142.434)" fill="#050605"/>
            <path id="Path_55548" data-name="Path 55548" d="M1692.772,509.441h-37.4a1.826,1.826,0,0,1-1.8-1.8,1.938,1.938,0,0,1,1.8-1.8h37.4a1.826,1.826,0,0,1,1.8,1.8,1.938,1.938,0,0,1-1.8,1.8" transform="translate(446.223 142.502)" fill="#050605"/>
            <path id="Path_55549" data-name="Path 55549" d="M1484.8,648.052a1.826,1.826,0,0,1-1.8-1.8V214.409a1.828,1.828,0,0,1,1.8-1.8h75.1a1.827,1.827,0,0,1,1.8,1.8,1.938,1.938,0,0,1-1.8,1.8h-73.15V646.1a1.828,1.828,0,0,1-1.8,1.8Z" transform="translate(400.194 57.372)" fill="#050605"/>
            <path id="Path_55550" data-name="Path 55550" d="M1601.2,568.922a1.826,1.826,0,0,1-1.8-1.8V507.639a1.825,1.825,0,0,1,1.8-1.8h68.794a1.826,1.826,0,0,1,1.8,1.8,1.938,1.938,0,0,1-1.8,1.8H1603.3V567.12a1.826,1.826,0,0,1-1.8,1.8Z" transform="translate(431.603 142.502)" fill="#050605"/>
            <path id="Path_55551" data-name="Path 55551" d="M1170.755,442.808a1.826,1.826,0,0,1-1.8-1.8V353.134a1.845,1.845,0,0,1,.75-1.5l122.268-86.669a1.833,1.833,0,0,1,2.1,3l-121.516,86.218v86.969a1.825,1.825,0,0,1-1.8,1.8Z" transform="translate(315.447 71.405)" fill="#050605"/>
            <path id="Path_55552" data-name="Path 55552" d="M1427.671,465.184a1.734,1.734,0,0,1-1.8-1.8V398.643a1.891,1.891,0,1,1,3.755-.451V463.38a1.827,1.827,0,0,1-1.8,1.8Z" transform="translate(384.777 107.008)" fill="#050605"/>
            <path id="Path_55553" data-name="Path 55553" d="M1307.349,422.362c-.3,0-.75,0-.9-.3l-39.955-25.235a1.649,1.649,0,0,1-.9-1.5V174.374a1.891,1.891,0,1,1,3.755-.451V394.275l39.2,24.784a1.785,1.785,0,0,1,.6,2.554,1.726,1.726,0,0,1-1.653.9Z" transform="translate(341.526 46.488)" fill="#050605"/>
            <path id="Path_55554" data-name="Path 55554" d="M1347.474,136.412a1.826,1.826,0,0,1-1.8-1.8V101.564a1.826,1.826,0,0,1,1.8-1.8,1.938,1.938,0,0,1,1.8,1.8V134.61a1.861,1.861,0,0,1-1.8,1.952Z" transform="translate(363.135 26.921)" fill="#050605"/>
            <path id="Path_55555" data-name="Path 55555" d="M1298.5,577.15a1.7,1.7,0,0,1-1.2-.451,1.726,1.726,0,0,1,0-2.554l47.014-50.769a1.631,1.631,0,0,1,1.352-.6h55.876l46.714-46.865a1.9,1.9,0,0,1,2.7,0,1.728,1.728,0,0,1,0,2.554l-47.315,47.315a1.905,1.905,0,0,1-1.352.6h-56.026L1299.846,576.7a1.738,1.738,0,0,1-1.5.6Z" transform="translate(349.928 134.275)" fill="#050605"/>
            <path id="Path_55556" data-name="Path 55556" d="M1407.563,568.922a1.826,1.826,0,0,1-1.8-1.8V507.639a1.826,1.826,0,0,1,1.8-1.8,1.938,1.938,0,0,1,1.8,1.8V567.12a1.825,1.825,0,0,1-1.8,1.8" transform="translate(379.351 142.502)" fill="#050605"/>
            <path id="Path_55557" data-name="Path 55557" d="M1376.217,561.74a1.826,1.826,0,0,1-1.8-1.8V534.253a1.826,1.826,0,0,1,1.8-1.8,1.938,1.938,0,0,1,1.8,1.8v25.534a1.748,1.748,0,0,1-1.652,1.953Z" transform="translate(370.892 149.684)" fill="#050605"/>
            <path id="Path_55558" data-name="Path 55558" d="M1347.474,561.74a1.826,1.826,0,0,1-1.8-1.8V534.253a1.826,1.826,0,0,1,1.8-1.8,1.938,1.938,0,0,1,1.8,1.8v25.534a1.748,1.748,0,0,1-1.652,1.953Z" transform="translate(363.135 149.684)" fill="#050605"/>
            <path id="Path_55559" data-name="Path 55559" d="M1427.88,489.85a1.826,1.826,0,0,1-1.8-1.8V471.826h-15.321a1.827,1.827,0,0,1-1.8-1.8,1.939,1.939,0,0,1,1.8-1.8h17.123a1.827,1.827,0,0,1,1.8,1.8v18.026a1.96,1.96,0,0,1-1.8,1.952Z" transform="translate(380.212 132.351)" fill="#050605"/>
            <path id="Path_55560" data-name="Path 55560" d="M1499.806,398.2v205.97h-44.16V480.809l-28.239-17.874V398.2Z" transform="translate(385.192 107.455)" fill="#050605"/>
            <path id="Path_55561" data-name="Path 55561" d="M1500.156,603.32h-44.01a1.827,1.827,0,0,1-1.8-1.8V482.21l-27.337-17.273a1.653,1.653,0,0,1-.9-1.5V398.7a1.736,1.736,0,0,1,1.8-1.8h72.4a1.826,1.826,0,0,1,1.8,1.8v202.97a1.826,1.826,0,0,1-1.8,1.8Zm-42.357-3.755H1498.2V400.349H1429.56v61.734l27.337,17.274a1.652,1.652,0,0,1,.9,1.5V599.565Z" transform="translate(384.841 107.104)" fill="#050605"/>
            <path id="Path_55562" data-name="Path 55562" d="M1582.187,342.307a1.826,1.826,0,0,1-1.8-1.8V315.57H1555.3a1.825,1.825,0,0,1-1.8-1.8,1.938,1.938,0,0,1,1.8-1.8h26.886a1.826,1.826,0,0,1,1.8,1.8V340.5A1.825,1.825,0,0,1,1582.187,342.307Z" transform="translate(419.219 84.185)" fill="#050605"/>
            <path id="Path_55563" data-name="Path 55563" d="M1536.262,435.753a1.826,1.826,0,0,1-1.8-1.8V409.016h-24.935a1.825,1.825,0,0,1-1.8-1.8,1.939,1.939,0,0,1,1.8-1.8h26.737a1.828,1.828,0,0,1,1.8,1.8V434.1a1.826,1.826,0,0,1-1.8,1.8Z" transform="translate(406.866 109.402)" fill="#050605"/>
            <path id="Path_55564" data-name="Path 55564" d="M1628.169,342.307a1.825,1.825,0,0,1-1.8-1.8V315.57h-24.936a1.825,1.825,0,0,1-1.8-1.8,1.939,1.939,0,0,1,1.8-1.8h26.888a1.826,1.826,0,0,1,1.8,1.8V340.5a1.826,1.826,0,0,1-1.8,1.8Z" transform="translate(431.667 84.185)" fill="#050605"/>
            <path id="Path_55565" data-name="Path 55565" d="M1628.169,293.337a1.825,1.825,0,0,1-1.8-1.8V266.6h-24.936a1.825,1.825,0,0,1-1.8-1.8,1.939,1.939,0,0,1,1.8-1.8h26.888a1.826,1.826,0,0,1,1.8,1.8v26.887a1.826,1.826,0,0,1-1.8,1.8Z" transform="translate(431.667 70.97)" fill="#050605"/>
            <path id="Path_55566" data-name="Path 55566" d="M1137.75,464.168a1.826,1.826,0,0,1-1.8-1.8v-21.93l-26.437-15.471V450.2a1.826,1.826,0,0,1-1.8,1.8,1.938,1.938,0,0,1-1.8-1.8V421.66a2.075,2.075,0,0,1,.9-1.652,2.234,2.234,0,0,1,1.953,0l30.192,17.725a1.724,1.724,0,0,1,.9,1.652v22.982a1.825,1.825,0,0,1-1.8,1.8Z" transform="translate(298.434 113.28)" fill="#050605"/>
            <path id="Path_55567" data-name="Path 55567" d="M1193.581,494.213a1.734,1.734,0,0,1-1.8-1.8v-21.93l-26.437-15.471v25.233a1.826,1.826,0,0,1-1.8,1.8,1.938,1.938,0,0,1-1.8-1.8V451.7a2.075,2.075,0,0,1,.9-1.652,1.914,1.914,0,0,1,1.8,0l30.191,17.725a1.724,1.724,0,0,1,.9,1.652v22.982a1.826,1.826,0,0,1-1.8,1.8Z" transform="translate(313.5 121.388)" fill="#050605"/>
            <path id="Path_55568" data-name="Path 55568" d="M1062.115,92.084c-.194,0-.487,0-.585-.2L1018.668,65.2H981.259a1.184,1.184,0,0,1-1.169-1.169,1.257,1.257,0,0,1,1.169-1.169h37.7c.2,0,.488,0,.585.2l42.279,26.3,28.836-32.83-39.941-28.348-14.905,9.838a1.169,1.169,0,0,1-1.461-.1l-11.5-10.814H896.409a1.184,1.184,0,0,1-1.169-1.169,1.256,1.256,0,0,1,1.169-1.169H1023.44a1.109,1.109,0,0,1,.78.292l11.105,10.521,14.711-9.741a1.17,1.17,0,0,1,1.364,0l41.694,29.615a1.148,1.148,0,0,1,.292,1.655l-30.394,34.584a.935.935,0,0,1-.974.292Z" transform="translate(332.573 71.399)" fill="#050605"/>
            <path id="Path_55569" data-name="Path 55569" d="M1050.645,22.737a1.2,1.2,0,0,1-.974-.487,1.148,1.148,0,0,1,.293-1.656L1078.312.233a1.427,1.427,0,0,1,1.072-.2l29.128,10.424h37.895a1.185,1.185,0,0,1,1.169,1.169,1.257,1.257,0,0,1-1.169,1.169h-38.48L1079.189,2.474l-27.861,19.97a1.409,1.409,0,0,1-.682.2Z" transform="translate(305.368 75.769)" fill="#050605"/>
            <path id="Path_55570" data-name="Path 55570" d="M1232.22,59.043H1127.3a1.185,1.185,0,0,1-1.169-1.169A1.258,1.258,0,0,1,1127.3,56.7h104.82a1.184,1.184,0,0,1,1.169,1.169,1.257,1.257,0,0,1-1.169,1.169Z" transform="translate(291.837 65.764)" fill="#050605"/>
            <path id="Path_55571" data-name="Path 55571" d="M1258.905,53.748a3.6,3.6,0,1,1-3.6,3.6,3.6,3.6,0,0,1,3.6-3.6" transform="translate(269.048 66.286)" fill="#050605"/>
            <path id="Path_55572" data-name="Path 55572" d="M1258.536,61.876a4.773,4.773,0,1,1,4.774-4.773,4.781,4.781,0,0,1-4.774,4.773m0-7.112a2.338,2.338,0,1,0,2.338,2.338,2.37,2.37,0,0,0-2.338-2.338" transform="translate(269.32 66.536)" fill="#050605"/>
            <path id="Path_55573" data-name="Path 55573" d="M900.264,21.693a3.6,3.6,0,1,1-3.6,3.6,3.6,3.6,0,0,1,3.6-3.6" transform="translate(332.322 71.941)" fill="#050605"/>
            <path id="Path_55574" data-name="Path 55574" d="M900.013,29.821a4.773,4.773,0,1,1,4.773-4.773v.1a4.7,4.7,0,0,1-4.773,4.676m0-7.112a2.527,2.527,0,0,0-2.435,2.338,2.527,2.527,0,0,0,2.338,2.435,2.454,2.454,0,0,0,2.435-2.338,2.328,2.328,0,0,0-2.338-2.338Z" transform="translate(332.573 72.192)" fill="#050605"/>
            <path id="Path_55575" data-name="Path 55575" d="M1431.513,453.864a1.43,1.43,0,0,1-1.052-.3L1412.588,442a1.882,1.882,0,0,1,1.8-3.3h.15l17.875,11.566a1.917,1.917,0,0,1,.6,2.554,1.653,1.653,0,0,1-1.5.9Z" transform="translate(380.935 118.327)" fill="#050605"/>
            <path id="Path_55576" data-name="Path 55576" d="M1159.393,542.422h-77.355a1.826,1.826,0,0,1-1.8-1.8V514.334h-46.864a1.827,1.827,0,0,1-1.8-1.8V433.974H985.756a1.826,1.826,0,0,1-1.8-1.8,1.938,1.938,0,0,1,1.8-1.8h47.616a1.826,1.826,0,0,1,1.8,1.8v78.708h46.864a1.826,1.826,0,0,1,1.8,1.8v26.286h75.554a1.826,1.826,0,0,1,1.8,1.8,1.937,1.937,0,0,1-1.8,1.8Z" transform="translate(265.524 116.137)" fill="#050605"/>
            <path id="Path_55577" data-name="Path 55577" d="M950.323,440.931h-1.352a7.108,7.108,0,0,1-4.655-3c-.151-.3-.451-.6-.6-.9-.15-.451-.3-.752-.451-1.2v-3.756a7.5,7.5,0,0,1,9.014-4.956,8.339,8.339,0,0,1,2.552,1.352,3.866,3.866,0,0,1,1.352,1.351h.15a.776.776,0,0,0,.3.6,9.26,9.26,0,0,1,.751,1.8v.6a1.662,1.662,0,0,1,0,1.2v.9a1.909,1.909,0,0,1-.15.9,1.358,1.358,0,0,1-.15.75,8.688,8.688,0,0,1-2.7,3.455,7.446,7.446,0,0,1-3.9,1.2Zm0-10.664a3.02,3.02,0,0,0-1.953.6,2.949,2.949,0,0,0-1.351,1.953v1.8a.6.6,0,0,0,.3.6.533.533,0,0,0,.3.451,3.433,3.433,0,0,0,4.806,1.051,4.689,4.689,0,0,0,1.351-1.652V433.12a2.134,2.134,0,0,0-.3-.9v-.451c0-.15-.3-.451-.6-.6A4.082,4.082,0,0,0,950.323,430.266Z" transform="translate(254.544 115.188)" fill="#050605"/>
            <path id="Path_55578" data-name="Path 55578" d="M940.575,424.94a5.123,5.123,0,0,1-1.5-.15,1.779,1.779,0,0,1-1.351-2.254,1.638,1.638,0,0,1,2.1-1.351,2.961,2.961,0,0,0,2.253-.451,2.871,2.871,0,0,0,1.051-2.1v-1.2a6.473,6.473,0,0,1,5.407-6.46,2,2,0,0,1,2.1,1.5,1.965,1.965,0,0,1-1.5,2.1,2.752,2.752,0,0,0-2.253,2.855v1.351a6.478,6.478,0,0,1-6.308,6.46h-.15Z" transform="translate(253.028 110.902)" fill="#050605"/>
            <path id="Path_55579" data-name="Path 55579" d="M930.8,429.083a2.1,2.1,0,0,1-1.8-1.352,5.714,5.714,0,0,1-.151-2.253,1.119,1.119,0,0,1,.151-.75,1.806,1.806,0,1,1,3.455,1.051v1.051a1.8,1.8,0,0,1-1.2,2.253Z" transform="translate(250.636 114.269)" fill="#050605"/>
            <path id="Path_55580" data-name="Path 55580" d="M934.433,437.857a1.266,1.266,0,0,1-1.051-.3,1.769,1.769,0,0,1-.451-2.552,1.836,1.836,0,0,0,.451-1.352V432.3a1.136,1.136,0,0,0-.3-.6,1.834,1.834,0,0,1,3-2.1,6.106,6.106,0,0,1,.752,1.352,2.134,2.134,0,0,0,.3.9,5.7,5.7,0,0,1,0,2.254,3.418,3.418,0,0,1-.451,1.652,3.933,3.933,0,0,1-.75,1.351,1.939,1.939,0,0,1-1.652.752Z" transform="translate(251.658 115.709)" fill="#050605"/>
            <path id="Path_55581" data-name="Path 55581" d="M931.12,440.228a1.1,1.1,0,0,1-.9-.3,1.924,1.924,0,0,1-.75-2.552,6.947,6.947,0,0,1,2.253-2.4l1.052-.6c.15,0,.451-.3.6-.451a1.912,1.912,0,1,1,2.705,2.7,8.214,8.214,0,0,1-1.353,1.051l-1.051.6a3.5,3.5,0,0,0-1.051,1.051,1.654,1.654,0,0,1-1.5.9" transform="translate(250.765 116.943)" fill="#050605"/>
            <path id="Path_55582" data-name="Path 55582" d="M956.291,465.377h-3.906a6.667,6.667,0,0,1-6.608-6.61v-1.2a2.693,2.693,0,0,0-2.7-2.7,2.239,2.239,0,0,0-1.353.3l-1.051.6-.752.451a6.51,6.51,0,0,1-8.11-2.853l-1.953-3.455a5.791,5.791,0,0,1-.6-4.956,2.676,2.676,0,0,1,.6-1.5,6.17,6.17,0,0,1,2.4-2.4l1.052-.6c.15,0,.451-.3.6-.451l.3-.3c0-.151.15-.3.3-.6a.9.9,0,0,1,.151-.6v-1.5c0-.151,0-.3-.3-.451a4,4,0,0,0-.9-.752l-1.051-.6a6.4,6.4,0,0,1-3-4.056,5.71,5.71,0,0,1-.151-2.253v-.6a5.038,5.038,0,0,1,.752-2.1l1.952-3.455a6.667,6.667,0,0,1,8.412-2.7l.6.3,1.053.6a1.138,1.138,0,0,1,.6.3,2.961,2.961,0,0,0,2.253-.451,2.871,2.871,0,0,0,1.051-2.1v-1.2a6.668,6.668,0,0,1,6.609-6.608h3.9a6.667,6.667,0,0,1,6.608,6.608v2.1a.784.784,0,0,0,.3.6,2.632,2.632,0,0,0,3.605.75l1.051-.6a6.5,6.5,0,0,1,8.411,1.652,3.327,3.327,0,0,1,.451.75l1.952,3.455c0,.3.3.451.451.75.151.451.3,1.051.451,1.5a6.732,6.732,0,0,1-3.154,6.61l-1.052.6a2.95,2.95,0,0,0-1.351,1.953v.45a2.48,2.48,0,0,0,1.351,2.254l1.052.6a6.22,6.22,0,0,1,3.154,4.806v1.652a4.042,4.042,0,0,1-.75,2.253l-1.953,3.455a6.813,6.813,0,0,1-4.056,3,6.091,6.091,0,0,1-5.106-.752l-1.051-.6a2.5,2.5,0,0,0-3.154.451,2.423,2.423,0,0,0-.9,1.953v1.2a6.77,6.77,0,0,1-6.608,6.61Zm-13.218-14.271a6.412,6.412,0,0,1,6.458,6.46v1.2a2.761,2.761,0,0,0,2.853,2.853h3.906a2.851,2.851,0,0,0,2.853-2.853v-1.2a6.412,6.412,0,0,1,6.46-6.46,7.5,7.5,0,0,1,3.154.752l1.05.6a2.9,2.9,0,0,0,3.906-1.051l1.953-3.455a2.782,2.782,0,0,0,.3-1.051v-.751a2.544,2.544,0,0,0-1.351-2.1l-1.051-.6a6.128,6.128,0,0,1-3.154-5.407v-.9a6.092,6.092,0,0,1,3.154-4.657l1.051-.6a2.727,2.727,0,0,0,1.351-2.855.906.906,0,0,0-.15-.6s0-.3-.15-.3l-1.953-3.455v-.3a3.071,3.071,0,0,0-3.906-.752l-1.05.6a6.346,6.346,0,0,1-8.412-1.8,10,10,0,0,1-.9-1.8,7.622,7.622,0,0,1-.3-1.952v-1.2a2.851,2.851,0,0,0-2.853-2.853h-3.9a2.761,2.761,0,0,0-2.855,2.853v1.2a6.477,6.477,0,0,1-6.309,6.458,5.126,5.126,0,0,1-1.5-.15,3.156,3.156,0,0,1-1.652-.6l-1.052-.6h-.3a2.729,2.729,0,0,0-3.755,1.051l-1.952,3.455a2.127,2.127,0,0,0-.3.9h-1.953l1.8.3v.9a2.681,2.681,0,0,0,1.351,1.8l1.051.6a10.335,10.335,0,0,1,1.953,1.653,6.082,6.082,0,0,1,.752,1.351,2.14,2.14,0,0,0,.3.9,3.835,3.835,0,0,1,0,2.253,2.534,2.534,0,0,1-.451,1.5,7.023,7.023,0,0,1-.75,1.5l-.451.6a5.87,5.87,0,0,1-1.5,1.2l-1.051.6a3.521,3.521,0,0,0-1.051,1.053,1.144,1.144,0,0,1-.3.6,3.934,3.934,0,0,0,.3,2.253l1.953,3.455a2.89,2.89,0,0,0,3.605,1.2h.3c0-.15,1.052-.752,1.052-.752a6.434,6.434,0,0,1,3.306-.9Zm11.265-5.707a7.11,7.11,0,0,1-6.008-3.305c-.151-.3-.451-.6-.6-.9-.15-.451-.3-.752-.451-1.2v-.6a7.3,7.3,0,0,1,0-2.554,1.346,1.346,0,0,1,.151-.751,6.886,6.886,0,0,1,2.853-3.906,7.234,7.234,0,0,1,8.411.451,3.888,3.888,0,0,1,1.352,1.352h.15a.779.779,0,0,0,.3.6,9.2,9.2,0,0,1,.75,1.8v2.552a1.907,1.907,0,0,1-.15.9,1.1,1.1,0,0,1-.3.9,7.145,7.145,0,0,1-6.308,4.657h-.15Zm0-10.815a3.019,3.019,0,0,0-1.953.6,2.949,2.949,0,0,0-1.351,1.953v1.8a.6.6,0,0,0,.3.6s0,.3.15.3a3.553,3.553,0,0,0,3.154,1.652,3.411,3.411,0,0,0,3-2.253v-2.1a1.152,1.152,0,0,0-.3-.752v-.45c0-.151-.3-.451-.6-.6a3.237,3.237,0,0,0-2.552-.75Z" transform="translate(250.679 110.87)" fill="#050605"/>
            <path id="Path_55583" data-name="Path 55583" d="M955.366,447.471a1.244,1.244,0,0,1-1.2-.451,1.729,1.729,0,0,1-.151-2.554c0-.15.3-.3.451-.451a1.968,1.968,0,0,1,2.554.752,1.925,1.925,0,0,1-1.5,2.853Z" transform="translate(257.312 119.764)" fill="#050605"/>
            <path id="Path_55584" data-name="Path 55584" d="M968,427.129a1.628,1.628,0,0,1-1.652-1.2s0-.3-.15-.3l-1.953-3.3a1.968,1.968,0,0,1,.751-2.554,2.085,2.085,0,0,1,2.554.6l1.953,3.3q.225.451.451.9a1.785,1.785,0,0,1-1.051,2.253c-.15,0-.451.151-.6.151Z" transform="translate(260.15 113.219)" fill="#050605"/>
            <path id="Path_55585" data-name="Path 55585" d="M968.351,423.165a1.85,1.85,0,0,1-1.5-.751,2.817,2.817,0,0,0-3.756-.752l-1.051.6a6.378,6.378,0,0,1-8.41-1.8,1.833,1.833,0,1,1,3-2.1,2.631,2.631,0,0,0,3.605.751l1.051-.6a6.569,6.569,0,0,1,8.561,1.8,1.748,1.748,0,0,1-.451,2.552,1.428,1.428,0,0,1-1.051.3" transform="translate(257.244 112.677)" fill="#050605"/>
            <path id="Path_55586" data-name="Path 55586" d="M954.716,420.992a1.952,1.952,0,0,1-1.8-1.2,8.756,8.756,0,0,1-.3-1.953v-1.652a1.915,1.915,0,0,1,3.755-.75v3.3a1.748,1.748,0,0,1-1.2,2.253Z" transform="translate(257.061 111.695)" fill="#050605"/>
            <path id="Path_55587" data-name="Path 55587" d="M424.874,347.794a5.888,5.888,0,0,0-3.027.353c-1.511.764-2.055,2.624-2.351,4.292a45.113,45.113,0,0,0,.119,16.326c.4,2.084,1.095,4.344,2.905,5.45,1.434.876,3.231.811,4.908.72.043,3.94-3.726,7.751-2.14,11.359,1.011,2.3,3.8,3.237,6.312,3.365a17.458,17.458,0,0,0,9.849-2.476,2.507,2.507,0,0,0,1.14-1.121,2.6,2.6,0,0,0-.089-1.641c-1.385-4.8-3.992-9.694-2.65-14.5.836-2.992,3.1-5.392,4.154-8.314a11.315,11.315,0,0,0-3.125-11.937c-1.822-1.57-4.1-1.162-6.422-1.3l-9.585-.574" transform="translate(113.018 93.843)" fill="#fff"/>
            <path id="Path_55588" data-name="Path 55588" d="M427.023,532.961a2.175,2.175,0,0,0-1.187.457,2.256,2.256,0,0,0-.367,1.873,38.186,38.186,0,0,1-1.6,15.015c-.3.951-.509,2.25.372,2.718a1.813,1.813,0,0,0,.839.161c3.782.039,6.95-3.233,8.062-6.847s.64-7.5.155-11.252c-.518-4.006-3.4-2.611-6.277-2.125" transform="translate(114.314 143.651)" fill="#fff"/>
            <path id="Path_55589" data-name="Path 55589" d="M458.821,532a2.945,2.945,0,0,0-2.212.373c-.979.823-.5,2.392.041,3.552a48.608,48.608,0,0,1,3.219,8.65c.62,2.5.992,5.2,2.648,7.167s5.219,2.582,6.629.429c.963-1.468.483-3.41-.028-5.09-2.316-7.617-1.738-14.252-10.3-15.082" transform="translate(123.066 143.551)" fill="#fff"/>
            <path id="Path_55590" data-name="Path 55590" d="M217.716,536.1a7.618,7.618,0,0,0-1.49,2.611,31.306,31.306,0,0,0-2.064,9.746c-.076,1.549.132,3.4,1.5,4.141a4.47,4.47,0,0,0,2.13.365l3.3.018a3.531,3.531,0,0,0,1.7-.273,3.113,3.113,0,0,0,1.054-1.077c2.166-3.215,4.377-9.737,3.562-13.661-.8-3.868-7.233-4.41-9.694-1.869" transform="translate(57.789 144.25)" fill="#fff"/>
            <path id="Path_55591" data-name="Path 55591" d="M2026.56,366.694a20.343,20.343,0,0,0-7.632,2.513,9.617,9.617,0,0,0-4.6,6.354,15.026,15.026,0,0,0,.093,4.132,109.717,109.717,0,0,0,2.3,14.321c.594,2.35,1.8,5.068,4.2,5.382,2.448.32,4.343-2.081,6.678-2.881a57.619,57.619,0,0,0-.542,8.017,3.419,3.419,0,0,0,.933,2.841,3.374,3.374,0,0,0,2.269.41,45.6,45.6,0,0,0,10.144-1.832,5.568,5.568,0,0,0,2.287-1.121c1.68-1.587.98-4.338.313-6.55a49.532,49.532,0,0,1-2.1-15.761,50.214,50.214,0,0,0,.034-7.592c-.291-2.38-1.223-6.618-3.4-8.118-2.626-1.811-8.108-.566-10.984-.113" transform="translate(543.545 98.728)" fill="#fff"/>
            <path id="Path_55592" data-name="Path 55592" d="M258.833,536.923c-1.26,2.376-1.248,5.212-.98,7.888a47.689,47.689,0,0,0,1.724,8.773,4.65,4.65,0,0,0,1.712,2.825,4.129,4.129,0,0,0,2.253.443,13.745,13.745,0,0,0,7.561-2.5q-.8-8.221-1.6-16.441a7.458,7.458,0,0,0-1.05-3.739c-2.267-3.119-8.262.192-9.618,2.75" transform="translate(69.544 143.807)" fill="#fff"/>
            <path id="Path_55593" data-name="Path 55593" d="M1972.329,403.79V350.877l-124.285-101.22v259.8" transform="translate(498.703 67.371)" fill="none" stroke="#d9e8f7" stroke-linecap="round" stroke-linejoin="round" stroke-width="2"/>
            <path id="Path_55594" data-name="Path 55594" d="M2018.85,423.546c-.6.481-8.541,13.491-8.541,13.491l-35.391,6.1v7.738l51.382-3.291,5.049-14.4" transform="translate(532.94 114.296)" fill="#fff"/>
            <path id="Path_55595" data-name="Path 55595" d="M2018.85,423.546c-.6.481-8.541,13.491-8.541,13.491l-35.391,6.1v7.738l51.382-3.291,5.049-14.4" transform="translate(532.94 114.296)" fill="none" stroke="#050605" stroke-linecap="round" stroke-linejoin="round" stroke-width="2.7"/>
            <line id="Line_130" data-name="Line 130" x1="57.203" transform="translate(2490.395 573.131)" fill="#fff"/>
            <line id="Line_131" data-name="Line 131" x1="57.203" transform="translate(2490.395 573.131)" fill="none" stroke="#050605" stroke-linecap="round" stroke-linejoin="round" stroke-width="5"/>
            <path id="Path_55699" data-name="Path 55699" d="M0,0H41.631V87.12H0Z" transform="translate(2560.932 624.188)" fill="#dae5f5"/>
            <line id="Line_132" data-name="Line 132" x2="57.203" transform="translate(2553.145 624.189)" fill="#fff"/>
            <line id="Line_133" data-name="Line 133" x2="57.203" transform="translate(2553.145 624.189)" fill="none" stroke="#050605" stroke-linecap="round" stroke-linejoin="round" stroke-width="5"/>
            <path id="Path_55596" data-name="Path 55596" d="M2035.375,382.344a37.592,37.592,0,0,0,2.857,13.5" transform="translate(549.255 103.177)" fill="none" stroke="#0a0a0a" stroke-linecap="round" stroke-linejoin="round" stroke-width="2"/>
            <path id="Path_55597" data-name="Path 55597" d="M2024.226,391.1q.107,5.181-.127,10.361" transform="translate(546.212 105.541)" fill="none" stroke="#0a0a0a" stroke-linecap="round" stroke-linejoin="round" stroke-width="2"/>
            <path id="Path_55598" data-name="Path 55598" d="M2030.3,391.911a22.15,22.15,0,0,1-6.007,4.836c-1.243.684-2.837,1.232-4.018.444a4.028,4.028,0,0,1-1.121-1.336,31.1,31.1,0,0,1-3.994-21.02" transform="translate(543.687 101.151)" fill="none" stroke="#0a0a0a" stroke-linecap="round" stroke-linejoin="round" stroke-width="2"/>
            <path id="Path_55599" data-name="Path 55599" d="M2039.981,380.038a2.41,2.41,0,0,0-2.377-.946,2.891,2.891,0,0,0-2.283,1.836,5.693,5.693,0,0,0-.069,2.723.86.86,0,0,1-.662-.268c-2.249-1.81-4.338-4.921-7.241-5.68-3.717-.969-7.55,2.152-11.365,1.617a10.368,10.368,0,0,1-5.961-3.6c-1.47-1.613-2.738-3.733-2.287-5.868.542-2.579,3.336-4.03,5.932-4.493,2.356-.419,5.035-.155,7.159-1.363,1.719-.978,2.918-2.952,4.793-3.957,3.633-1.948,8.554-1.476,12.437-.564a12.935,12.935,0,0,1,7.456,4.45A14.545,14.545,0,0,1,2048,370.59c1.125,7.412-.63,14.942-2.744,22.135-.139.47-.346,1.01-.818,1.14a1.437,1.437,0,0,1-1.258-.537,18.954,18.954,0,0,1-3.782-4.885c-.927-1.756-1.122-2.187.2-3.557a3.659,3.659,0,0,0,1.085-2.79,3.9,3.9,0,0,0-.7-2.058" transform="translate(541.772 96.792)" fill="#0a0a0a"/>
            <path id="Path_55600" data-name="Path 55600" d="M2047.847,391.918l20.359,6.415a13.722,13.722,0,0,1,8.536,12.986v39.166l-11.284-.8-3.053,29.906-44.737-3.986.32-29.627-15.2-10.356,7.114-24.96a14.608,14.608,0,0,1,7.4-9.146l11.511-4.621s2.921,1.251,9.13.5a16.052,16.052,0,0,0,9.909-5.473" transform="translate(540.461 105.761)" fill="#85e3bc"/>
            <path id="Path_55601" data-name="Path 55601" d="M1964.716,538.014l-2.245,12.436a2.686,2.686,0,0,1-1.843,2.086l-9.8,3.063a3.539,3.539,0,0,0-2.447,3.9l.24,1.625h22.262a1.106,1.106,0,0,0,1.1-1.016l.773-9.426,2.053-10.272Z" transform="translate(525.769 145.185)" fill="#fff"/>
            <path id="Path_55602" data-name="Path 55602" d="M1964.716,538.014l-2.245,12.436a2.686,2.686,0,0,1-1.843,2.086l-9.8,3.063a3.539,3.539,0,0,0-2.447,3.9l.24,1.625h22.262a1.106,1.106,0,0,0,1.1-1.016l.773-9.426,2.053-10.272Z" transform="translate(525.769 145.185)" fill="none" stroke="#050605" stroke-linecap="round" stroke-linejoin="round" stroke-width="2"/>
            <path id="Path_55603" data-name="Path 55603" d="M1967.187,550.876a26.72,26.72,0,0,1-4.837.334,2.206,2.206,0,0,1-1.248-.284.807.807,0,0,1-.239-1.126c.059-.065.135-.126.14-.212.04-.73-9.359,2.752-10.172,3.007a3.539,3.539,0,0,0-2.447,3.9l.24,1.625h22.488c1.082,0,1.029-8.818,1.3-8.969a16.392,16.392,0,0,1-5.228,1.726" transform="translate(525.769 148.191)" fill="#050605"/>
            <path id="Path_55604" data-name="Path 55604" d="M2017.191,505.648l-1.049-3.252a3.279,3.279,0,0,1,2.96-4.282l38.525-1.885c17.031-.825,15.24-34.424,15.24-34.424l-43.3-3.986-2.215,4.429-41.757,9.612a20.985,20.985,0,0,0-16.071,17.511L1958.7,565.9l14.833,1.312,19.183-62.971" transform="translate(528.563 123.544)" fill="#fff"/>
            <path id="Path_55605" data-name="Path 55605" d="M2017.191,505.648l-1.049-3.252a3.279,3.279,0,0,1,2.96-4.282l38.525-1.885c17.031-.825,15.24-34.424,15.24-34.424l-43.3-3.986-2.215,4.429-41.757,9.612a20.985,20.985,0,0,0-16.071,17.511L1958.7,565.9l14.833,1.312,19.183-62.971" transform="translate(528.563 123.544)" fill="none" stroke="#050605" stroke-linecap="round" stroke-linejoin="round" stroke-width="2"/>
            <path id="Path_55606" data-name="Path 55606" d="M2011.56,544.408c.446.442,3.571,7.582,3.571,7.582l-5.359,6.7a7.109,7.109,0,0,1-2.141,1.794l-3.751,2.046a.954.954,0,0,0,.285,1.775l5.855,1.076a6.224,6.224,0,0,0,4.508-.9l14.439-9.364-8.927-17.41Z" transform="translate(540.621 145.103)" fill="#fff"/>
            <path id="Path_55607" data-name="Path 55607" d="M2011.56,544.408c.446.442,3.571,7.582,3.571,7.582l-5.359,6.7a7.109,7.109,0,0,1-2.141,1.794l-3.751,2.046a.954.954,0,0,0,.285,1.775l5.855,1.076a6.224,6.224,0,0,0,4.508-.9l14.439-9.364-8.927-17.41Z" transform="translate(540.621 145.103)" fill="none" stroke="#050605" stroke-linecap="round" stroke-linejoin="round" stroke-width="2"/>
            <path id="Path_55608" data-name="Path 55608" d="M2014.447,550.687c-2.407,2.362-3.843,6.331-6.816,7.953l-3.751,2.047a.954.954,0,0,0,.285,1.775l5.855,1.076a6.225,6.225,0,0,0,4.508-.9l14.439-9.364c-.232.15-3.63-8.346-4.229-8.739a7.346,7.346,0,0,0-.3,2.194,6.192,6.192,0,0,1-2.4,3.557,25.854,25.854,0,0,1-3.9,2.772,3.881,3.881,0,0,1-1.878.66,1.476,1.476,0,0,1-1.5-1.087c-.11-.693.33-1.666-.313-1.945" transform="translate(540.621 146.945)" fill="#050605"/>
            <path id="Path_55609" data-name="Path 55609" d="M2014.447,550.687c-2.407,2.362-3.843,6.331-6.816,7.953l-3.751,2.047a.954.954,0,0,0,.285,1.775l5.855,1.076a6.225,6.225,0,0,0,4.508-.9l14.439-9.364c-.232.15-3.63-8.346-4.229-8.739a7.346,7.346,0,0,0-.3,2.194,6.192,6.192,0,0,1-2.4,3.557,25.854,25.854,0,0,1-3.9,2.772,3.881,3.881,0,0,1-1.878.66,1.476,1.476,0,0,1-1.5-1.087C2014.65,551.939,2015.09,550.966,2014.447,550.687Z" transform="translate(540.621 146.945)" fill="none" stroke="#050605" stroke-linecap="round" stroke-linejoin="round" stroke-width="2"/>
            <path id="Path_55610" data-name="Path 55610" d="M2034.876,465.842l-46.224,9.617a14.9,14.9,0,0,0-10,21.791l38.951,70.468s9.3-1.328,13.289-6.644l-22.148-68.655" transform="translate(533.443 125.71)" fill="#fff"/>
            <path id="Path_55611" data-name="Path 55611" d="M2034.876,465.842l-46.224,9.617a14.9,14.9,0,0,0-10,21.791l38.951,70.468s9.3-1.328,13.289-6.644l-22.148-68.655" transform="translate(533.443 125.71)" fill="none" stroke="#050605" stroke-linecap="round" stroke-linejoin="round" stroke-width="2"/>
            <line id="Line_134" data-name="Line 134" x1="3.638" y2="34.12" transform="translate(2559.24 526.763)" fill="none" stroke="#050605" stroke-linecap="round" stroke-linejoin="round" stroke-width="2"/>
            <path id="Path_55612" data-name="Path 55612" d="M2054.958,435.491l-1.764,7.711-50.8.257-11.708,11.708,6.629,1.752,10.452-4.975,53.838,9.1a5.975,5.975,0,0,0,7.026-3.985l6.339-19.623-.7,2.146" transform="translate(537.196 117.519)" fill="#fff"/>
            <path id="Path_55613" data-name="Path 55613" d="M2054.958,435.491l-1.764,7.711-50.8.257-11.708,11.708,6.629,1.752,10.452-4.975,53.838,9.1a5.975,5.975,0,0,0,7.026-3.985l6.339-19.623-.7,2.146" transform="translate(537.196 117.519)" fill="none" stroke="#050605" stroke-linecap="round" stroke-linejoin="round" stroke-width="2"/>
            <path id="Path_55614" data-name="Path 55614" d="M2042.588,416.478l-2.841,23.985,26.079,2.1" transform="translate(550.435 112.388)" fill="none" stroke="#050605" stroke-linecap="round" stroke-linejoin="round" stroke-width="2"/>
            <path id="Path_55615" data-name="Path 55615" d="M1964.409,454.73h32.981a3.034,3.034,0,0,0,2.337-4.969l-20.376-24.629a3.033,3.033,0,0,0-2.338-1.1h-32.98A3.034,3.034,0,0,0,1941.7,429l20.376,24.63a3.037,3.037,0,0,0,2.338,1.1" transform="translate(523.785 114.427)" fill="#f3f7fc"/>
            <path id="Path_55616" data-name="Path 55616" d="M1964.409,454.73h32.981a3.034,3.034,0,0,0,2.337-4.969l-20.376-24.629a3.033,3.033,0,0,0-2.338-1.1h-32.98A3.034,3.034,0,0,0,1941.7,429l20.376,24.63A3.037,3.037,0,0,0,1964.409,454.73Z" transform="translate(523.785 114.427)" fill="none" stroke="#050605" stroke-linecap="round" stroke-linejoin="round" stroke-width="2"/>
            <path id="Path_55617" data-name="Path 55617" d="M2100.4,587.728V466.943c0-7.022-6.371-12.711-14.221-12.7l-271.383.416" transform="translate(489.729 122.58)" fill="none" stroke="#050605" stroke-linecap="round" stroke-linejoin="round" stroke-width="2"/>
            <path id="Path_55618" data-name="Path 55618" d="M592.288,352.889H524.925V474.607" transform="translate(141.653 95.229)" fill="none" stroke="#050605" stroke-linecap="round" stroke-linejoin="round" stroke-width="2.7"/>
            <rect id="Rectangle_5233" data-name="Rectangle 5233" width="13.753" height="35.146" transform="translate(521.172 275.782)" fill="none" stroke="#c3d3eb" stroke-linecap="round" stroke-linejoin="round" stroke-width="2"/>
            <rect id="Rectangle_5234" data-name="Rectangle 5234" width="13.753" height="49.424" transform="translate(547.451 261.504)" fill="none" stroke="#c3d3eb" stroke-linecap="round" stroke-linejoin="round" stroke-width="2"/>
            <rect id="Rectangle_5235" data-name="Rectangle 5235" width="13.753" height="63.701" transform="translate(573.728 247.227)" fill="none" stroke="#c3d3eb" stroke-linecap="round" stroke-linejoin="round" stroke-width="2"/>
            <path id="Path_55619" data-name="Path 55619" d="M2315.17,87.916a27.616,27.616,0,0,1-27.609,27.609H2179.833a37.049,37.049,0,0,1,0-74.1c.226,0,.431,0,.656.022a55.2,55.2,0,0,1,107.072,18.879A27.6,27.6,0,0,1,2315.17,87.916Z" transform="translate(578.242 1.384)" fill="none" stroke="#d9e8f7" stroke-linecap="round" stroke-linejoin="round" stroke-width="2"/>
            <path id="Path_55620" data-name="Path 55620" d="M202.276,53.616A25.157,25.157,0,0,1,177.12,78.772H78.186a22.318,22.318,0,1,1,6.971-43.518,38.679,38.679,0,0,1,76.534-1.511,25.148,25.148,0,0,1,40.585,19.873Z" transform="translate(15.075 0.378)" fill="none" stroke="#d9e8f7" stroke-linecap="round" stroke-linejoin="round" stroke-width="2"/>
            <path id="Path_55621" data-name="Path 55621" d="M1898.757,204.941v11.693h16.638v15.3l13.275-15.3h33.786V174.687h-63.7V190.88" transform="translate(512.388 47.14)" fill="none" stroke="#c3d3eb" stroke-linecap="round" stroke-linejoin="round" stroke-width="2"/>
            <circle id="Ellipse_185" data-name="Ellipse 185" cx="27.984" cy="27.984" r="27.984" transform="translate(820.746 74.479)" fill="none" stroke="#c3d3eb" stroke-linecap="round" stroke-linejoin="round" stroke-width="2"/>
            <path id="Path_55622" data-name="Path 55622" d="M658.661,63.436a27.952,27.952,0,1,1-9.391,10.7" transform="translate(174.415 15.827)" fill="none" stroke="#c3d3eb" stroke-linecap="round" stroke-linejoin="round" stroke-width="2"/>
            <path id="Path_55623" data-name="Path 55623" d="M672.565,58.651V86.635l-19.753,19.753" transform="translate(176.165 15.827)" fill="none" stroke="#c3d3eb" stroke-linecap="round" stroke-linejoin="round" stroke-width="2"/>
            <line id="Line_135" data-name="Line 135" x2="26.319" y2="9.364" transform="translate(848.73 102.463)" fill="none" stroke="#c3d3eb" stroke-linecap="round" stroke-linejoin="round" stroke-width="2"/>
            <line id="Line_136" data-name="Line 136" y1="14.193" x2="24.061" transform="translate(848.73 88.269)" fill="none" stroke="#c3d3eb" stroke-linecap="round" stroke-linejoin="round" stroke-width="2"/>
            <path id="Path_55624" data-name="Path 55624" d="M1474.725,77.133a28.545,28.545,0,1,1,45.45,22.951,3.935,3.935,0,0,0-1.662,3.152v.005a10.33,10.33,0,0,1-10.331,10.33h-9.844a10.33,10.33,0,0,1-10.329-10.33,3.942,3.942,0,0,0-1.666-3.159A28.453,28.453,0,0,1,1474.725,77.133Z" transform="translate(397.961 13.114)" fill="none" stroke="#c3d3eb" stroke-linecap="round" stroke-linejoin="round" stroke-width="2"/>
            <path id="Path_55625" data-name="Path 55625" d="M1496.232,108.081h5.035a4.792,4.792,0,0,0,4.793-4.791v-3.6h-14.618v3.6A4.79,4.79,0,0,0,1496.232,108.081Z" transform="translate(402.472 26.902)" fill="none" stroke="#c3d3eb" stroke-linecap="round" stroke-linejoin="round" stroke-width="2"/>
            <path id="Path_55626" data-name="Path 55626" d="M1531.157,71a28.529,28.529,0,0,1-10.982,29.082,3.932,3.932,0,0,0-1.663,3.152v.005a10.33,10.33,0,0,1-10.329,10.33h-9.844a10.33,10.33,0,0,1-10.33-10.33,3.942,3.942,0,0,0-1.666-3.159,28.682,28.682,0,0,1-9.53-12.233,28.556,28.556,0,0,1,32.594-38.611,27.894,27.894,0,0,1,12.059,5.844" transform="translate(397.961 13.114)" fill="none" stroke="#c3d3eb" stroke-linecap="round" stroke-linejoin="round" stroke-width="2"/>
            <path id="Path_55627" data-name="Path 55627" d="M236.009,432.645l27.2,136.879a18.436,18.436,0,0,0,13.756-1.015s-9.058-126.837-10.805-126.775-30.153-9.09-30.153-9.09" transform="translate(63.688 116.751)" fill="#fff"/>
            <path id="Path_55628" data-name="Path 55628" d="M236.009,432.645l27.2,136.879a18.436,18.436,0,0,0,13.756-1.015s-9.058-126.837-10.805-126.775S236.009,432.645,236.009,432.645Z" transform="translate(63.688 116.751)" fill="none" stroke="#050605" stroke-linecap="round" stroke-linejoin="round" stroke-width="2"/>
            <path id="Path_55629" data-name="Path 55629" d="M221.018,546.792a23.246,23.246,0,0,0,3.114.633c.794.107,1.592.176,2.392.216a1.947,1.947,0,0,1,1.893.857c2.165,2.394,4.679,4.437,6.987,6.686a111.543,111.543,0,0,1,7.732,8.334c.2.237.408.558.265.834a.778.778,0,0,1-.606.319,15.933,15.933,0,0,1-7.3-1c-4.183-1.331-24.489-10.5-24.468-10.753.265-3.206.168-7.482,1.926-10.3a1.736,1.736,0,0,1,1.049-.877,3.5,3.5,0,0,0,1.9,2.733,16.092,16.092,0,0,0,3.571,1.827q.764.282,1.544.5" transform="translate(56.948 146.189)" fill="#060707"/>
            <path id="Path_55630" data-name="Path 55630" d="M216.259,536.812a90.72,90.72,0,0,0-1.746,10.168" transform="translate(57.887 144.861)" fill="#fff"/>
            <path id="Path_55631" data-name="Path 55631" d="M216.259,536.812a90.72,90.72,0,0,0-1.746,10.168" transform="translate(57.887 144.861)" fill="none" stroke="#050605" stroke-linecap="round" stroke-linejoin="round" stroke-width="2"/>
            <path id="Path_55632" data-name="Path 55632" d="M225.316,539.274a97.008,97.008,0,0,0-2.839,9.991" transform="translate(60.036 145.525)" fill="#fff"/>
            <path id="Path_55633" data-name="Path 55633" d="M225.316,539.274a97.008,97.008,0,0,0-2.839,9.991" transform="translate(60.036 145.525)" fill="none" stroke="#050605" stroke-linecap="round" stroke-linejoin="round" stroke-width="2"/>
            <path id="Path_55634" data-name="Path 55634" d="M227.392,430.5l-6.658,65.763-6.563,73.295s8.719,3.421,14.789.772l36.084-138.308-31.193-12.1Z" transform="translate(57.795 113.318)" fill="#fff"/>
            <path id="Path_55635" data-name="Path 55635" d="M227.392,430.5l-6.658,65.763-6.563,73.295s8.719,3.421,14.789.772l36.084-138.308-31.193-12.1Z" transform="translate(57.795 113.318)" fill="none" stroke="#050605" stroke-linecap="round" stroke-linejoin="round" stroke-width="2"/>
            <path id="Path_55636" data-name="Path 55636" d="M301.128,400.934c5.118-5.83,9.662-12.094,14.592-18.074,1.646-2,3.426-4.028,5.817-5.016,2.417-1,5.133-.8,7.736-1.043a22.527,22.527,0,0,0,5.4-1.186c1.4-.493,2.888-1.653,4.422-1.457,3,.385-.208,3.144-1.156,4.136a12.912,12.912,0,0,1-5.092,3.5c-3.22,1.086-6.662,1.42-9.86,2.569a4.861,4.861,0,0,0-1.382.69,5.544,5.544,0,0,0-1.285,1.693q-4.436,7.749-8.874,15.5c-1.925,3.36-3.853,6.726-6.086,9.89A12.72,12.72,0,0,1,302.7,415.1a7.108,7.108,0,0,1-2.5,1.194" transform="translate(81.01 100.962)" fill="#fff"/>
            <path id="Path_55637" data-name="Path 55637" d="M301.128,400.934c5.118-5.83,9.662-12.094,14.592-18.074,1.646-2,3.426-4.028,5.817-5.016,2.417-1,5.133-.8,7.736-1.043a22.527,22.527,0,0,0,5.4-1.186c1.4-.493,2.888-1.653,4.422-1.457,3,.385-.208,3.144-1.156,4.136a12.912,12.912,0,0,1-5.092,3.5c-3.22,1.086-6.662,1.42-9.86,2.569a4.861,4.861,0,0,0-1.382.69,5.544,5.544,0,0,0-1.285,1.693q-4.436,7.749-8.874,15.5c-1.925,3.36-3.853,6.726-6.086,9.89A12.72,12.72,0,0,1,302.7,415.1a7.108,7.108,0,0,1-2.5,1.194" transform="translate(81.01 100.962)" fill="none" stroke="#0a0a0a" stroke-linecap="round" stroke-linejoin="round" stroke-width="2"/>
            <path id="Path_55638" data-name="Path 55638" d="M250.908,369.059a14.238,14.238,0,0,1,.827-4.287c1.305-4.2,2.952-8.352,3.269-12.734.171-2.376-.055-4.777.257-7.139a15.815,15.815,0,0,1,2.239-6.258,13.021,13.021,0,0,1,3.968-4.138,16.9,16.9,0,0,1,8.612-2.25,10.446,10.446,0,0,1,5.752,1.074A8.792,8.792,0,0,1,278.491,336a16.451,16.451,0,0,1,2.773,8.729,26.024,26.024,0,0,1-.8,6.566,51.593,51.593,0,0,1-2.782,8.55c-.649,1.526-1.606,3.209-3.241,3.482-1.459.243-2.847-.762-4.326-.806a.688.688,0,0,0-.485.122.746.746,0,0,0-.192.484,31.387,31.387,0,0,0-.208,6.756,9.843,9.843,0,0,1-.227,4.438c-.919,2.293-3.636,3.331-6.1,3.435-5.073.215-11.954-2.832-11.994-8.7" transform="translate(67.709 89.656)" fill="#fff"/>
            <path id="Path_55639" data-name="Path 55639" d="M255.245,347.4c-.122,4.706-1.5,11.877-4.532,15.627" transform="translate(67.656 93.747)" fill="#fff"/>
            <path id="Path_55640" data-name="Path 55640" d="M255.245,347.4c-.122,4.706-1.5,11.877-4.532,15.627" transform="translate(67.656 93.747)" fill="none" stroke="#050605" stroke-linecap="round" stroke-linejoin="round" stroke-width="2"/>
            <path id="Path_55641" data-name="Path 55641" d="M265.445,356.142q-.107,5.171.127,10.342" transform="translate(71.623 96.107)" fill="#fff"/>
            <path id="Path_55642" data-name="Path 55642" d="M265.445,356.142q-.107,5.171.127,10.342" transform="translate(71.623 96.107)" fill="none" stroke="#050605" stroke-linecap="round" stroke-linejoin="round" stroke-width="2"/>
            <path id="Path_55643" data-name="Path 55643" d="M262.649,356.947a22.139,22.139,0,0,0,5.995,4.827c1.242.683,2.832,1.23,4.012.443a4.015,4.015,0,0,0,1.119-1.333A31.031,31.031,0,0,0,277.76,339.9" transform="translate(70.877 91.724)" fill="#fff"/>
            <path id="Path_55644" data-name="Path 55644" d="M262.649,356.947a22.139,22.139,0,0,0,5.995,4.827c1.242.683,2.832,1.23,4.012.443a4.015,4.015,0,0,0,1.119-1.333A31.031,31.031,0,0,0,277.76,339.9" transform="translate(70.877 91.724)" fill="none" stroke="#050605" stroke-linecap="round" stroke-linejoin="round" stroke-width="2"/>
            <path id="Path_55645" data-name="Path 55645" d="M258.32,345.1a2.407,2.407,0,0,1,2.373-.945,2.888,2.888,0,0,1,2.278,1.832,5.682,5.682,0,0,1,.07,2.719.86.86,0,0,0,.66-.267c2.245-1.807,4.33-4.913,7.228-5.67,3.711-.968,7.537,2.147,11.345,1.613a10.349,10.349,0,0,0,5.949-3.595c1.468-1.61,2.733-3.726,2.283-5.858-.542-2.574-3.331-4.022-5.921-4.484-2.353-.419-5.025-.154-7.145-1.36-1.716-.976-2.913-2.946-4.785-3.95-3.625-1.944-8.539-1.473-12.414-.561a12.9,12.9,0,0,0-7.443,4.441,14.508,14.508,0,0,0-2.485,6.655c-1.124,7.4.627,14.916,2.739,22.094.137.469.345,1.007.817,1.138a1.431,1.431,0,0,0,1.255-.536,18.849,18.849,0,0,0,3.775-4.876c.926-1.752,1.12-2.183-.2-3.551a3.654,3.654,0,0,1-1.083-2.785,3.9,3.9,0,0,1,.7-2.055" transform="translate(67.453 87.373)" fill="#0a0a0a"/>
            <path id="Path_55646" data-name="Path 55646" d="M260.673,355.156q.749-.187,1.493-.391a12.039,12.039,0,0,0,4.066,8.382,15.687,15.687,0,0,0,8.644,3.749,9.986,9.986,0,0,0,3.1-.044,23.431,23.431,0,0,0,3.632-1.3,1.737,1.737,0,0,1,.578-.142,1.893,1.893,0,0,1,.653.145c1.567.555,3.138,1.048,4.714,1.59a14.142,14.142,0,0,1,4.924,2.573,20.663,20.663,0,0,1,6.856,9.813l13.286,35.619,11.689-14.16,11.148,14.728-15.792,20.372a11.936,11.936,0,0,1-19.819-1.431l-13.979-24.686L281.5,446.86l.97,65.524-70.864-4.853,9.675-68.5a19.076,19.076,0,0,1,.5-2.4c2.538-9.232,19.081-69.4,19.088-69.429a13.3,13.3,0,0,1,6.626-7.98c3.36-1.888,7.125-2.717,10.847-3.521q1.171-.253,2.334-.545" transform="translate(57.103 95.735)" fill="#fdd535"/>
            <path id="Path_55647" data-name="Path 55647" d="M274.745,382.89c-7.008,39-10.827,70.128-7.223,118.376" transform="translate(71.82 103.325)" fill="none" stroke="#050605" stroke-linecap="round" stroke-linejoin="round" stroke-width="2"/>
            <path id="Path_55648" data-name="Path 55648" d="M253.877,414.541c1.454,9.542,3.338,19.039,4.674,28.595.921,6.574,12.81,7.121,18.2,8.043,2.119.363,4.488.8,5.737,2.546a1.2,1.2,0,0,1,.282.9c-.1.448-.592.676-1.032.805a20.1,20.1,0,0,1-4.974.592l-16.02.563c-5.145.18-7.678.428-9.406-5.1-3.356-10.724-6.23-21.441-9.337-32.247" transform="translate(65.305 111.866)" fill="#fff"/>
            <path id="Path_55649" data-name="Path 55649" d="M253.877,414.541c1.454,9.542,3.338,19.039,4.674,28.595.921,6.574,12.81,7.121,18.2,8.043,2.119.363,4.488.8,5.737,2.546a1.2,1.2,0,0,1,.282.9c-.1.448-.592.676-1.032.805a20.1,20.1,0,0,1-4.974.592l-16.02.563c-5.145.18-7.678.428-9.406-5.1-3.356-10.724-6.23-21.441-9.337-32.247" transform="translate(65.305 111.866)" fill="none" stroke="#050605" stroke-linecap="round" stroke-linejoin="round" stroke-width="2"/>
            <path id="Path_55650" data-name="Path 55650" d="M231.064,387.234l-2.254-9.439a14,14,0,0,1,6.47-15.289l8.255-4.9,21.321,88.68-16.649,8.154Z" transform="translate(61.642 96.501)" fill="#fdd535"/>
            <path id="Path_55651" data-name="Path 55651" d="M248.329,378.01c5.544,25.058,9.129,38.36,15.623,63.189-5.528,2.6-17.577,7.868-17.577,7.868s-9.187-37.943-14.357-59.795" transform="translate(62.611 102.008)" fill="none" stroke="#050605" stroke-linecap="round" stroke-linejoin="round" stroke-width="2"/>
            <path id="Path_55652" data-name="Path 55652" d="M286.248,391.97q2.831,8.244,5.662,16.488c.037.108.108.237.221.222s.01-.243-.041-.141" transform="translate(77.245 105.775)" fill="none" stroke="#050605" stroke-linecap="round" stroke-linejoin="round" stroke-width="2"/>
            <path id="Path_55653" data-name="Path 55653" d="M266.064,548.513a23.4,23.4,0,0,0,3.135-.505c.781-.18,1.553-.4,2.316-.641a1.94,1.94,0,0,1,2.074.135c2.871,1.475,5.942,2.5,8.9,3.792a111.6,111.6,0,0,1,10.173,5.072c.272.152.58.378.545.687-.028.236-.249.394-.455.512a15.914,15.914,0,0,1-7.184,1.634c-4.383.229-26.619-1.187-26.689-1.435-.883-3.093-2.48-7.06-1.829-10.319a1.723,1.723,0,0,1,.672-1.191,3.5,3.5,0,0,0,2.739,1.888,16.078,16.078,0,0,0,3.986.451q.812-.006,1.62-.079" transform="translate(69.324 147.409)" fill="#060707"/>
            <path id="Path_55654" data-name="Path 55654" d="M258.159,540.76a90.828,90.828,0,0,0,1.952,10.131" transform="translate(69.665 145.927)" fill="#fff"/>
            <path id="Path_55655" data-name="Path 55655" d="M258.159,540.76a90.828,90.828,0,0,0,1.952,10.131" transform="translate(69.665 145.927)" fill="none" stroke="#050605" stroke-linecap="round" stroke-linejoin="round" stroke-width="2"/>
            <path id="Path_55656" data-name="Path 55656" d="M267.286,539.952a97.371,97.371,0,0,0,.866,10.351" transform="translate(72.128 145.708)" fill="#fff"/>
            <path id="Path_55657" data-name="Path 55657" d="M267.286,539.952a97.371,97.371,0,0,0,.866,10.351" transform="translate(72.128 145.708)" fill="none" stroke="#050605" stroke-linecap="round" stroke-linejoin="round" stroke-width="2"/>
            <path id="Path_55658" data-name="Path 55658" d="M391.826,395.96c-1.435-1.213-2.876-2.418-4.338-3.6-1.889-1.528-3.907-3.063-6.293-3.524-2.411-.465-4.874.226-7.314.493a21.2,21.2,0,0,1-5.191-.078c-1.378-.192-2.968-.98-4.342-.512-2.693.919.782,2.855,1.84,3.59a12.117,12.117,0,0,0,5.342,2.267c3.167.395,6.4.057,9.556.513a4.615,4.615,0,0,1,1.4.376,5.2,5.2,0,0,1,1.5,1.317l4.6,5.234" transform="translate(98.051 104.863)" fill="#fff"/>
            <path id="Path_55659" data-name="Path 55659" d="M391.826,395.96c-1.435-1.213-2.876-2.418-4.338-3.6-1.889-1.528-3.907-3.063-6.293-3.524-2.411-.465-4.874.226-7.314.493a21.2,21.2,0,0,1-5.191-.078c-1.378-.192-2.968-.98-4.342-.512-2.693.919.782,2.855,1.84,3.59a12.117,12.117,0,0,0,5.342,2.267c3.167.395,6.4.057,9.556.513a4.615,4.615,0,0,1,1.4.376,5.2,5.2,0,0,1,1.5,1.317l4.6,5.234" transform="translate(98.051 104.863)" fill="none" stroke="#0a0a0a" stroke-linecap="round" stroke-linejoin="round" stroke-width="2"/>
            <path id="Path_55660" data-name="Path 55660" d="M423.49,530.48q1.28,7.842,1.884,15.774" transform="translate(114.281 143.152)" fill="#fff"/>
            <path id="Path_55661" data-name="Path 55661" d="M423.49,530.48q1.28,7.842,1.884,15.774" transform="translate(114.281 143.152)" fill="none" stroke="#0a0a0a" stroke-linecap="round" stroke-linejoin="round" stroke-width="2"/>
            <path id="Path_55662" data-name="Path 55662" d="M430.438,529.684l1.909,17.017" transform="translate(116.156 142.938)" fill="#fff"/>
            <path id="Path_55663" data-name="Path 55663" d="M430.438,529.684l1.909,17.017" transform="translate(116.156 142.938)" fill="none" stroke="#0a0a0a" stroke-linecap="round" stroke-linejoin="round" stroke-width="2"/>
            <path id="Path_55664" data-name="Path 55664" d="M455.04,531.367c2.089,4.867,5.529,13.238,7.194,18.268" transform="translate(122.795 143.392)" fill="#0a0a0a"/>
            <path id="Path_55665" data-name="Path 55665" d="M455.04,531.367c2.089,4.867,5.529,13.238,7.194,18.268" transform="translate(122.795 143.392)" fill="none" stroke="#0a0a0a" stroke-linecap="round" stroke-linejoin="round" stroke-width="2"/>
            <path id="Path_55666" data-name="Path 55666" d="M461.59,530.063c1.986,5.351,5.978,14.572,7.963,19.923" transform="translate(124.562 143.04)" fill="#0a0a0a"/>
            <path id="Path_55667" data-name="Path 55667" d="M461.59,530.063c1.986,5.351,5.978,14.572,7.963,19.923" transform="translate(124.562 143.04)" fill="none" stroke="#0a0a0a" stroke-linecap="round" stroke-linejoin="round" stroke-width="2"/>
            <path id="Path_55668" data-name="Path 55668" d="M443.645,383.023a6.965,6.965,0,0,0,3.738-1.627l7.49-5.234,7.318,4.665a12.146,12.146,0,0,1,4.122,3.618c1.248,2.065,1.152,4.646.956,7.052a31.841,31.841,0,0,1-1.347,7.73c-1.086,3.189-3.043,5.991-4.828,8.847a95.947,95.947,0,0,0-12.133,29.355c-.253,1.1-.6,2.361-1.634,2.824a3.645,3.645,0,0,1-1.449.22l-23.285.319a4.609,4.609,0,0,1-3.253-.787c-1.3-1.191-1.308-3.589-1.594-5.191-.56.72-1.694.451-2.526.076-5.9-2.654-10.753-7.144-15.387-11.66-6-5.845-11.826-11.866-17.653-17.883a1.152,1.152,0,0,1-.33-.493,1.121,1.121,0,0,1,.32-.876,45.886,45.886,0,0,1,3.2-3.831,3.591,3.591,0,0,1,1.153-.923c1.023-.435,2.179.107,3.147.655,8.961,5.077,16.972,11.646,25.438,17.509a1.957,1.957,0,0,0,1.058.453c.663,0,1.145-.658,1.3-1.3a23.821,23.821,0,0,0,.163-4.229c.09-1.731.157-3.464.168-5.2a51.436,51.436,0,0,0-.847-10.277,26.894,26.894,0,0,1-.847-5.615c.072-4.408,3.124-8.332,6.871-10.653,2.714-1.681,7.737-4.319,11.008-3.206,3.444,1.173,5.606,5.7,9.662,5.664" transform="translate(103.039 101.509)" fill="#ff8484"/>
            <path id="Path_55669" data-name="Path 55669" d="M419.14,436.243a14.362,14.362,0,0,1-8.648-3.9l-29.321-27.712,5.917-6.552,30.546,21.323,1.83,1.284-3.35-21.028-.753-4.693a13.055,13.055,0,0,1,8.737-14.432l10.61-4" transform="translate(102.861 101.61)" fill="#ff8384"/>
            <path id="Path_55670" data-name="Path 55670" d="M413.5,389.317c-.568,1.595-.989,3.4-1.557,5a10.614,10.614,0,0,0-1.293,18.122c.424,6.759,1.124,15.533,1.939,22.531a1.684,1.684,0,0,0,1.68,1.484h27.138a1.691,1.691,0,0,0,1.656-1.357,81.68,81.68,0,0,1,3.238-10.271c2.258-6.125,5.3-13.37,7.628-20.512" transform="translate(109.605 105.059)" fill="#ff8484"/>
            <path id="Path_55671" data-name="Path 55671" d="M413.5,389.317c-.568,1.595-.989,3.4-1.557,5a10.614,10.614,0,0,0-1.293,18.122c.424,6.759,1.124,15.533,1.939,22.531a1.684,1.684,0,0,0,1.68,1.484h27.138a1.691,1.691,0,0,0,1.656-1.357,81.68,81.68,0,0,1,3.238-10.271c2.258-6.125,5.3-13.37,7.628-20.512" transform="translate(109.605 105.059)" fill="none" stroke="#0a0a0a" stroke-linecap="round" stroke-linejoin="round" stroke-width="2"/>
            <path id="Path_55672" data-name="Path 55672" d="M437.969,426.9c-7.3,0-14.61-.061-21.913,0-1.813.015-3.666-.027-3.666-.027s-4.381,8.672-5.149,11.454a64.019,64.019,0,0,0-1.873,21.413c.99,14.2,5,27.65,8.577,41.282,3.942,15.014,11.54,65.34,11.54,65.34l16.671-.124-4.89-101.921" transform="translate(109.34 115.194)" fill="#fff"/>
            <path id="Path_55673" data-name="Path 55673" d="M437.969,426.9c-7.3,0-14.61-.061-21.913,0-1.813.015-3.666-.027-3.666-.027s-4.381,8.672-5.149,11.454a64.019,64.019,0,0,0-1.873,21.413c.99,14.2,5,27.65,8.577,41.282,3.942,15.014,11.54,65.34,11.54,65.34l16.671-.124-4.89-101.921" transform="translate(109.34 115.194)" fill="none" stroke="#0a0a0a" stroke-linecap="round" stroke-linejoin="round" stroke-width="2"/>
            <path id="Path_55674" data-name="Path 55674" d="M415.186,427.03c7.444,0,16.321-1.434,23.59,0,5.627,1.11,9.665,10.611,11.858,15.657a59.087,59.087,0,0,1,4.927,23.2c.072,16.329,7.57,33.379,12.21,49.054l12.968,43.795q1.149,3.878,2.3,7.756H464.58s-34.2-74.906-49.394-127.556" transform="translate(112.04 115.064)" fill="#fff"/>
            <path id="Path_55675" data-name="Path 55675" d="M415.186,427.03c7.444,0,16.321-1.434,23.59,0,5.627,1.11,9.665,10.611,11.858,15.657a59.087,59.087,0,0,1,4.927,23.2c.072,16.329,7.57,33.379,12.21,49.054l12.968,43.795q1.149,3.878,2.3,7.756H464.58s-34.2-74.906-49.394-127.556" transform="translate(112.04 115.064)" fill="none" stroke="#0a0a0a" stroke-linecap="round" stroke-linejoin="round" stroke-width="2"/>
            <path id="Path_55676" data-name="Path 55676" d="M419.14,431.664a14.362,14.362,0,0,1-8.648-3.9l-29.321-27.712,5.917-6.552L403.1,404.677" transform="translate(102.861 106.189)" fill="none" stroke="#0a0a0a" stroke-linecap="round" stroke-linejoin="round" stroke-width="2"/>
            <path id="Path_55677" data-name="Path 55677" d="M430.9,410.394c-1.817-.478-3.637-.944-5.465-1.382-2.363-.566-4.846-1.083-7.2-.471-2.376.618-4.3,2.3-6.39,3.594a21.13,21.13,0,0,1-4.719,2.164c-1.326.422-3.1.394-4.138,1.408-2.036,1.989,1.935,2.24,3.205,2.447a12.14,12.14,0,0,0,5.8-.253c3.03-1.008,5.8-2.7,8.846-3.651a4.552,4.552,0,0,1,1.426-.264,5.19,5.19,0,0,1,1.92.544l6.409,2.743" transform="translate(108.593 110.172)" fill="#fff"/>
            <path id="Path_55678" data-name="Path 55678" d="M430.9,410.394c-1.817-.478-3.637-.944-5.465-1.382-2.363-.566-4.846-1.083-7.2-.471-2.376.618-4.3,2.3-6.39,3.594a21.13,21.13,0,0,1-4.719,2.164c-1.326.422-3.1.394-4.138,1.408-2.036,1.989,1.935,2.24,3.205,2.447a12.14,12.14,0,0,0,5.8-.253c3.03-1.008,5.8-2.7,8.846-3.651a4.552,4.552,0,0,1,1.426-.264,5.19,5.19,0,0,1,1.92.544l6.409,2.743" transform="translate(108.593 110.172)" fill="none" stroke="#0a0a0a" stroke-linecap="round" stroke-linejoin="round" stroke-width="2"/>
            <path id="Path_55679" data-name="Path 55679" d="M423.329,376.541c6.3,14.344,19.241,0,19.241,0l.989.29a26.262,26.262,0,0,1,17.62,17.154l9.844,30.562a10.47,10.47,0,0,1-11.444,13.575L423.4,426.374l2.023-10.993,29.274,7.365-11.313-25.732" transform="translate(114.237 101.611)" fill="#ff8484"/>
            <line id="Line_137" data-name="Line 137" x1="10.635" y1="24.192" transform="translate(557.616 498.625)" fill="none" stroke="#0a0a0a" stroke-linecap="round" stroke-linejoin="round" stroke-width="2"/>
            <path id="Path_55680" data-name="Path 55680" d="M423.079,378.675a3.166,3.166,0,0,0,1.981-2.337c.381-1.981,1.029-5.232,1.448-7.2" transform="translate(114.17 99.614)" fill="none" stroke="#0a0a0a" stroke-linecap="round" stroke-linejoin="round" stroke-width="2"/>
            <path id="Path_55681" data-name="Path 55681" d="M420.633,348.744a43.761,43.761,0,0,0-1.71,20.663c.82,5.157,4.5,6.566,9.3,5.116a41.908,41.908,0,0,0,5.368-2.541" transform="translate(112.904 94.11)" fill="none" stroke="#0a0a0a" stroke-linecap="round" stroke-linejoin="round" stroke-width="2"/>
            <path id="Path_55682" data-name="Path 55682" d="M435.127,362.72v7.93a6.406,6.406,0,0,0,.789,3.078l2.277,4.149c.434.791,1.194,2.394,1.194,2.394" transform="translate(117.421 97.882)" fill="none" stroke="#0a0a0a" stroke-linecap="round" stroke-linejoin="round" stroke-width="2"/>
            <path id="Path_55683" data-name="Path 55683" d="M428.243,340.279c-.549-.268-1.1-.535-1.646-.787-2.977-1.366-6.594-2.292-9.417-.632a6.877,6.877,0,0,0-3.09,4.406,9.585,9.585,0,0,0,.474,5.436,11.968,11.968,0,0,0,3.252,4.738,14.4,14.4,0,0,0,8.034,3.359,23.785,23.785,0,0,0,8.753-.879,1.735,1.735,0,0,1,1.021-.071c.95.335.555,1.711.668,2.444a5.488,5.488,0,0,0,1.018,2.419c.344.456,1.13.747,1.35,1.222a.971.971,0,0,1,.06.432q-.01.958-.022,1.919a3.659,3.659,0,0,1,1.873-1.822,2.132,2.132,0,0,1,2.418.6c1.7,2.321-1.79,3.967-3.592,3.925a.82.82,0,0,0-.486.08c-.221.147-.227.463-.2.728.165,1.837,1.958,11.1,4.791,9.987a3.785,3.785,0,0,0,1.568-1.486c4.444-6.349,7.76-14.153,5.971-22.019a4.11,4.11,0,0,0,1.8,3c4.627,2.8,8.437-4.5,8.316-8.122A11.791,11.791,0,0,0,460,344.711a13.149,13.149,0,0,0-4.5-5.595,8.277,8.277,0,0,0-6.937-1.18c-1.548.489-3.8,2.113-4.417,3.7-.936,2.391,1.077,4.146,1.662,6.14a7.513,7.513,0,0,0-6.712-5.246c-1.1-.046-2.2.157-3.3.152-2.672-.01-5.128-1.214-7.557-2.4" transform="translate(111.69 91.107)" fill="#050605"/>
            <line id="Line_138" data-name="Line 138" y1="1.575" x2="4.241" transform="translate(533.007 478.288)" fill="none" stroke="#0a0a0a" stroke-linecap="round" stroke-linejoin="round" stroke-width="2"/>
            <path id="Path_55684" data-name="Path 55684" d="M415.186,436.271c15.2,52.651,49.394,127.556,49.394,127.556h16.709" transform="translate(112.04 117.73)" fill="none" stroke="#0a0a0a" stroke-linecap="round" stroke-linejoin="round" stroke-width="2"/>
            <path id="Path_55685" data-name="Path 55685" d="M415.235,554.535c2.105-1.562,4.17-3.178,6.152-4.894a37.242,37.242,0,0,0,4.97-6.013,1.13,1.13,0,0,1,1.134-.606l2.641-.047c.663-.011,1.458.048,1.779.628a1.685,1.685,0,0,1-.334,1.683,2.9,2.9,0,0,0-.743,1.613.652.652,0,0,0,.141.418c.282.313.794.08,1.131-.17,2.5-1.867,4.258-4.335,6.646-6.3.245-.2.554-.414.855-.314,1.088.364.663,3.277.609,4.076a48.636,48.636,0,0,1-.32,5.079c-.176.989-1.15,1.6-2.03,2.084l-6.067,3.345a49.005,49.005,0,0,0-5.821,3.229c-2.919,2.194-6.739,4.067-10.52,3.791-1.784-.13-5.143-.878-4.747-3.36a4.161,4.161,0,0,1,2.019-2.422q1.255-.9,2.5-1.822" transform="translate(110.824 145.859)" fill="#0a0a0a"/>
            <path id="Path_55686" data-name="Path 55686" d="M485.051,551.546c-2.874-1.279-5.721-2.653-8.447-4.2a7.945,7.945,0,0,1-2.268-1.7c-1.114-1.332-1.872-2.442-3.8-2.484a10.161,10.161,0,0,0-2.709.422,3.76,3.76,0,0,0-1.455.6,1.309,1.309,0,0,0-.5,1.4c.19.51.813.89.71,1.426-.384.281-.921.079-1.347-.131-2.171-1.064-3.968-2.486-6.125-3.578-1.705-.864-1.293,1.321-1.067,2.236l1.12,4.535a5.581,5.581,0,0,0,1.257,2.761c1.082,1.055,3.366,1.3,4.785,1.759,4.508,1.446,8.966,2.966,13.54,4.187a14.343,14.343,0,0,0,7.736.229c1.714-.516,4.829-1.977,3.9-4.314a4.171,4.171,0,0,0-2.5-1.924q-1.421-.6-2.839-1.233" transform="translate(123.549 146.561)" fill="#0a0a0a"/>
            <path id="Path_55687" data-name="Path 55687" d="M423.329,376.541c6.3,14.344,19.241,0,19.241,0l.989.29a26.262,26.262,0,0,1,17.62,17.154l9.844,30.562a10.484,10.484,0,0,1-7.773,13.459,10.184,10.184,0,0,1-5.225-.389L423.4,426.374l1.931-10.95,30.727,6.342" transform="translate(114.237 101.611)" fill="none" stroke="#0a0a0a" stroke-linecap="round" stroke-linejoin="round" stroke-width="2"/>
            <line id="Line_139" data-name="Line 139" x2="189.512" transform="translate(305.219 570.126)" fill="none" stroke="#c3d3eb" stroke-linecap="round" stroke-linejoin="round" stroke-width="2"/>
            <path id="Path_55688" data-name="Path 55688" d="M652.563,584.418V461.669a12.7,12.7,0,0,0-12.7-12.7h-464.8a12.7,12.7,0,0,0-12.7,12.7V584.418" transform="translate(43.815 121.157)" fill="none" stroke="#050605" stroke-linecap="round" stroke-linejoin="round" stroke-width="2"/>
            <line id="Line_140" data-name="Line 140" x2="57.203" transform="translate(360.69 565.995)" fill="#fff"/>
            <line id="Line_141" data-name="Line 141" x2="57.203" transform="translate(360.69 565.995)" fill="none" stroke="#050605" stroke-linecap="round" stroke-linejoin="round" stroke-width="2"/>
            <path id="Path_55689" data-name="Path 55689" d="M338.475,449.111H305.494a3.034,3.034,0,0,1-2.338-4.969l20.376-24.629a3.034,3.034,0,0,1,2.338-1.1h32.981a3.034,3.034,0,0,1,2.338,4.969l-20.376,24.63A3.037,3.037,0,0,1,338.475,449.111Z" transform="translate(81.619 112.91)" fill="none" stroke="#050605" stroke-linecap="round" stroke-linejoin="round" stroke-width="2"/>
            <path id="Path_55690" data-name="Path 55690" d="M172.555,283.695V156.124H344.29V342.271" transform="translate(46.565 42.131)" fill="none" stroke="#d9e8f7" stroke-linecap="round" stroke-linejoin="round" stroke-width="2"/>
            <line id="Line_142" data-name="Line 142" x1="142.874" transform="translate(1.27 413.863)" fill="none" stroke="#d9e8f7" stroke-linecap="round" stroke-linejoin="round" stroke-width="2"/>
            <path id="Path_55691" data-name="Path 55691" d="M229.125,256.585H113.512V373.737" transform="translate(30.632 69.241)" fill="none" stroke="#d9e8f7" stroke-linecap="round" stroke-linejoin="round" stroke-width="2"/>
            <path id="Path_55692" data-name="Path 55692" d="M2319.894,512.337V195.777l-150.286,79.04v132.5" transform="translate(585.478 52.831)" fill="none" stroke="#d9e8f7" stroke-linecap="round" stroke-linejoin="round" stroke-width="2"/>
            <line id="Line_143" data-name="Line 143" x2="187.848" transform="translate(2794.882 565.863)" fill="none" stroke="#d9e8f7" stroke-linecap="round" stroke-linejoin="round" stroke-width="2.7"/>
            <path id="Path_55693" data-name="Path 55693" d="M2225.515,607.938V362.367H2109.9v93.669" transform="translate(569.367 97.786)" fill="none" stroke="#d9e8f7" stroke-linecap="round" stroke-linejoin="round" stroke-width="2"/>
            <path id="Path_55694" data-name="Path 55694" d="M2119.176,524.675a13.916,13.916,0,0,1-3.059,6.133c-3.685,4.025-5.894-3.289-7.164-5.79a58.875,58.875,0,0,1-5.144-13.27,69.767,69.767,0,0,1-1.356-13.6c-.243-8.546-.192-17.092-.154-25.638a52.742,52.742,0,0,1,.99-12c.154-.61.433-1.321,1.043-1.435a1.654,1.654,0,0,1,1.3.546c3.9,3.34,6.107,8.229,7.911,13.041a113.314,113.314,0,0,1,6.272,24.153,14.706,14.706,0,0,0-3.949,9.587c-.241,4.1,2.173,14.311,3.314,18.273" transform="translate(567.306 128.879)" fill="#d6e8f8"/>
            <path id="Path_55695" data-name="Path 55695" d="M2116.926,492.929a11.214,11.214,0,0,1,1.321-1.117c2.946-2.1,6.882-2.629,9.474-5.143a26.231,26.231,0,0,0,2.958-3.987,22.565,22.565,0,0,1,12.7-8.813c2.807-.724,6.26-.673,8.038,1.613,2.159,2.768.368,6.971-2.349,9.206s-6.2,3.378-8.826,5.714c-4.584,4.076-5.536,10.718-7.06,16.673s-4.826,12.508-10.87,13.562c-1.054.178-4.94.178-6.007.178,0-.013,0-.013-.012-.025-1.143-3.962-3.556-14.172-3.315-18.273a14.7,14.7,0,0,1,3.95-9.587" transform="translate(570.192 132.764)" fill="none" stroke="#050605" stroke-linecap="round" stroke-linejoin="round" stroke-width="2"/>
            <path id="Path_55696" data-name="Path 55696" d="M2129.578,565.23h-25.106l-6.407-38.353a10.382,10.382,0,0,1,10.381-10.382H2125.6a10.383,10.383,0,0,1,10.382,10.382Z" transform="translate(566.172 144.378)" fill="none" stroke="#050605" stroke-linecap="round" stroke-linejoin="round" stroke-width="2"/>
            <path id="Path_55697" data-name="Path 55697" d="M2113.847,523.008c.993-11.477,7.672-21.565,14.143-31.094" transform="translate(570.431 137.745)" fill="none" stroke="#050605" stroke-linecap="round" stroke-linejoin="round" stroke-width="2"/>
            <line id="Line_144" data-name="Line 144" x1="12.963" transform="translate(2684.279 700.679)" fill="none" stroke="#050605" stroke-linecap="round" stroke-linejoin="round" stroke-width="2"/>
          </g>
        </g>
        <path id="Path_55521" data-name="Path 55521" d="M1405.553,143.758h-96.431l10.063-16.673h76.454l10.064,16.673Z" transform="translate(353.272 34.294)" fill="#fe604a"/>
      </g>
    </g>
  </g>
</svg>
