<svg width="197" height="175" viewBox="0 0 197 175" fill="none" xmlns="http://www.w3.org/2000/svg">
<path d="M38.9778 99.2299C37.7255 93.3858 39.0799 87.2008 43.1422 82.8167C65.9669 58.1848 88.7049 56.5 124.5 56.5L112.239 75.5C71.5 73.5 54.5 88.5 41.5 111L38.9778 99.2299Z" fill="url(#paint0_linear_961_4081)"/>
<path d="M153 60.298L153 28C126.615 95.1613 64.3294 135.953 31.5 117.448L31.993 117.873C38.5518 123.527 46.4571 127.684 55.1118 127.97C88.1156 129.061 125.997 111.881 146.631 82.8973C151.28 76.3662 153 68.315 153 60.298Z" fill="url(#paint1_linear_961_4081)"/>
<path d="M163.962 121C187.791 100.15 163.962 71.5179 163.962 71.5179C144.157 126.328 50.9488 143.301 29.2928 114.358C33.0797 121.482 38.5779 127.582 45.7138 131.434C98.8939 160.147 141.989 140.226 163.962 121Z" fill="url(#paint2_linear_961_4081)"/>
<defs>
<linearGradient id="paint0_linear_961_4081" x1="71.5" y1="74.5" x2="49.5" y2="85" gradientUnits="userSpaceOnUse">
<stop stop-color="#067BC5"/>
<stop offset="1" stop-color="#041752"/>
</linearGradient>
<linearGradient id="paint1_linear_961_4081" x1="145" y1="68" x2="80" y2="118" gradientUnits="userSpaceOnUse">
<stop stop-color="#00A5F1"/>
<stop offset="0.399038" stop-color="#067BC5"/>
<stop offset="1" stop-color="#041752"/>
</linearGradient>
<linearGradient id="paint2_linear_961_4081" x1="141.5" y1="118" x2="64" y2="134" gradientUnits="userSpaceOnUse">
<stop stop-color="#7431C6"/>
<stop offset="1" stop-color="#041752"/>
</linearGradient>
</defs>
</svg>
