<svg width="335" height="110" viewBox="0 0 335 110" fill="none" xmlns="http://www.w3.org/2000/svg">
<path d="M76.5 40H108" stroke="#05599E" stroke-width="7"/>
<path d="M108 54.5H80V68.5C80 69.6046 80.8954 70.5 82 70.5H108" stroke="#05599E" stroke-width="7"/>
<path d="M214 36.5V74" stroke="#05599E" stroke-width="7"/>
<path d="M258 40H237C234.239 40 232 42.2386 232 45V65.5C232 68.2614 234.239 70.5 237 70.5H258" stroke="#05599E" stroke-width="7"/>
<path d="M267 40H300" stroke="#05599E" stroke-width="7"/>
<path d="M284 39V74" stroke="#05599E" stroke-width="7"/>
<path d="M185.487 71.6719C184.105 74.7741 179.73 74.8513 178.239 71.7998L161 36.5H168.847L181.788 62.626L193.68 36.5H201.155L185.487 71.6719Z" fill="#05599E"/>
<path d="M64 37V41.5H35.5V37H64Z" fill="#05599E" stroke="#05599E"/>
<path d="M35 40H59.0038C60.7362 40 61.6493 42.0526 60.4892 43.3393L39.0108 67.1607C37.8507 68.4474 38.7638 70.5 40.4962 70.5H63.5" stroke="#05599E" stroke-width="7"/>
<path d="M63.0166 73.5V70C63.0166 69.5258 62.6324 69.1409 62.1582 69.1406H35.5V73.5H63.0166Z" fill="#05599E" stroke="#05599E"/>
<path d="M122.001 36.9975L126.501 36.9923L126.542 73.5001L120.542 73.507L120.503 38.4992C120.502 37.6709 121.173 36.9985 122.001 36.9975Z" fill="#05599E" stroke="#05599E"/>
<path d="M126.849 37.1634L149.625 70.2997L144.642 73.3274L121.719 40.1137L126.849 37.1634Z" fill="#05599E" stroke="#05599E"/>
<path d="M151 36.9926L151.041 72.0003C151.042 72.8288 150.371 73.5011 149.542 73.5021L144.999 73.5073L144.999 36.9994L151 36.9926Z" fill="#05599E" stroke="#05599E"/>
</svg>
